<?xml version="1.0" encoding="utf-8"?>
<!-- Generator: Adobe Illustrator 16.0.2, SVG Export Plug-In . SVG Version: 6.00 Build 0)  -->
<!DOCTYPE svg PUBLIC "-//W3C//DTD SVG 1.1//EN" "http://www.w3.org/Graphics/SVG/1.1/DTD/svg11.dtd">
<svg version="1.1" id="Layer_1" xmlns="http://www.w3.org/2000/svg" xmlns:xlink="http://www.w3.org/1999/xlink" x="0px" y="0px"
	 width="673.469px" height="398.463px" viewBox="0 0 673.469 398.463" enable-background="new 0 0 673.469 398.463"
	 xml:space="preserve">
<g>
	<g>
		<path fill-rule="evenodd" clip-rule="evenodd" fill="#595B5D" d="M429.371,214.146h45.832c1.135,0,2.064,1.114,2.064,2.479v6.909
			c0,1.363-0.93,2.48-2.064,2.48h-45.832v-1.267h45.777c0.584,0,1.064-0.551,1.064-1.214v-6.909c0-0.666-0.48-1.214-1.064-1.214
			h-45.777V214.146z"/>
		<path fill-rule="evenodd" clip-rule="evenodd" fill="#E7E6E6" d="M429.826,215.411c0.457,1.49,0.674,3.096,0.674,4.667
			s-0.217,3.177-0.674,4.67h45.365c0.561,0,1.021-0.551,1.021-1.214v-6.909c0-0.666-0.461-1.214-1.021-1.214H429.826z"/>
		<rect x="432.699" y="226.015" fill-rule="evenodd" clip-rule="evenodd" fill="#806A50" width="57.383" height="8.567"/>
		<rect x="421.914" y="207.608" fill-rule="evenodd" clip-rule="evenodd" fill="#A37275" width="57.385" height="6.587"/>
		<rect x="424.061" y="207.608" fill-rule="evenodd" clip-rule="evenodd" fill="#EBECEF" width="4.629" height="6.587"/>
		<path fill-rule="evenodd" clip-rule="evenodd" fill="#806C65" d="M477.084,198.518h-35.102c-0.869,0-1.578,0.854-1.578,1.901
			v5.292c0,1.042,0.709,1.897,1.578,1.897h35.102v-0.971h-35.059c-0.447,0-0.816-0.42-0.816-0.927v-5.292
			c0-0.511,0.369-0.934,0.816-0.934h35.059V198.518z"/>
		<path fill-rule="evenodd" clip-rule="evenodd" fill="#E7E6E6" d="M476.736,199.485c-0.352,1.145-0.516,2.374-0.516,3.578
			s0.164,2.433,0.516,3.574h-34.744c-0.428,0-0.783-0.42-0.783-0.927v-5.292c0-0.511,0.355-0.934,0.783-0.934H476.736z"/>
		<rect x="442.039" y="200.923" fill-rule="evenodd" clip-rule="evenodd" fill="#D1D1D1" width="32.961" height="0.276"/>
		<rect x="442.039" y="202.242" fill-rule="evenodd" clip-rule="evenodd" fill="#D1D1D1" width="32.961" height="0.273"/>
		<rect x="442.039" y="203.941" fill-rule="evenodd" clip-rule="evenodd" fill="#D1D1D1" width="32.961" height="0.276"/>
		<rect x="442.039" y="205.344" fill-rule="evenodd" clip-rule="evenodd" fill="#D1D1D1" width="32.961" height="0.276"/>
		<rect x="432.635" y="217.549" fill-rule="evenodd" clip-rule="evenodd" fill="#D1D1D1" width="41.475" height="0.349"/>
		<rect x="432.635" y="219.207" fill-rule="evenodd" clip-rule="evenodd" fill="#D1D1D1" width="41.475" height="0.349"/>
		<rect x="432.635" y="221.345" fill-rule="evenodd" clip-rule="evenodd" fill="#D1D1D1" width="41.475" height="0.352"/>
		<rect x="432.635" y="223.111" fill-rule="evenodd" clip-rule="evenodd" fill="#D1D1D1" width="41.475" height="0.352"/>
		<rect x="437.422" y="226.015" fill-rule="evenodd" clip-rule="evenodd" fill="#D0D2D3" width="1.553" height="8.567"/>
		<rect x="487.885" y="226.015" fill-rule="evenodd" clip-rule="evenodd" fill="#D0D2D3" width="1.555" height="8.567"/>
		<rect x="485.361" y="226.015" fill-rule="evenodd" clip-rule="evenodd" fill="#D0D2D3" width="1.553" height="8.567"/>
	</g>
	<g>
		<path fill-rule="evenodd" clip-rule="evenodd" fill="#404041" d="M203.529,213.914c-0.575,0.979-1.189,3.536-1.839,7.162
			c-1.352-1.185-2.269-1.97-2.269-1.97c-1.697,3.918-4.026,10.432-2.742,19.195c0.377,2.573,0.927,4.952,1.516,7.029
			c-3.482,13.014-8.047,40.128-16.444,60.528c-17.417,42.316-29.395,84.353-27.692,92.305c0,0,35.864,1.172,47.009-0.042
			c11.27-1.228,5.204-13.974-17.301-14.736c-9.269-0.313,16.895-66.763,19.762-72.059c3.677-6.79,19.869-63.202,19.869-63.202
			v62.157c0,0-13.58,69.47-14.625,74.692c-1.044,5.224,0.196,13.147,4.375,13.147s41.617-0.191,47.886-0.188
			c6.785,0.005,7.708-6.467,0.557-11.176c-6.572-4.329-20.904-0.991-31.011-8.182c0,0,15.539-62.81,15.539-73.256
			c0-10.447-1.828-80.438-2.35-82.267S203.529,213.914,203.529,213.914z"/>
		<path fill-rule="evenodd" clip-rule="evenodd" fill="#3B3C3F" d="M197.781,223.504c-1.157,3.789-1.988,8.76-1.103,14.798
			c0.377,2.573,0.927,4.952,1.516,7.029c-3.482,13.014-8.047,40.128-16.444,60.528c-15.05,36.565-26.037,72.917-27.647,87.254
			l4.98-0.222c0,0,3.003-10.969,8.226-28.336s21.937-62.546,21.937-62.546l11.751-56.149c0,0-0.392-1.697-1.437-6.007
			c-1.045-4.309,0.653-14.103,1.698-15.931C201.258,223.923,199.817,223.733,197.781,223.504z"/>
		<path fill-rule="evenodd" clip-rule="evenodd" fill="#3C3D3E" d="M223.397,248.125v62.157c0,0-13.58,69.47-14.625,74.692
			c-0.272,1.363-0.389,2.91-0.338,4.453c3.764,1.891,13.058,1.58,13.058,1.58s12.575-6.837,13.188-8.356
			c0.214-0.529,0.316-1.103,0.357-1.626c-0.799-0.332-1.584-0.708-2.352-1.13c-4.965,1.371-16.252,4.396-16.287,3.539
			c-0.044-1.099,12.928-69.991,12.667-74.171c-0.261-4.179-3.133-68.688-3.133-68.688L223.397,248.125z"/>
		<path fill-rule="evenodd" clip-rule="evenodd" fill="#3C8376" d="M220.35,102.875c-15.596-3.893-23.097,10.508-10.932,18.328
			c10.969,7.051,22.97,35.952,33.415,40.13c25.077,10.029,34.66-14.179,56.973-38.418l-8.659-9.114c0,0-29.298,30.396-38.177,33.53
			C244.099,150.462,231.133,108.1,220.35,102.875z"/>
		<path fill-rule="evenodd" clip-rule="evenodd" fill="#3B7E72" d="M225.192,140.627c6.061,9.225,12.072,18.479,17.64,20.706
			c25.077,10.029,34.66-14.179,56.973-38.418l-2.808-2.955c-6.022,7.636-19.888,24.889-26.131,29.923
			c-8.097,6.529-13.058,12.014-22.46,7.835C241.77,154.769,230.972,145.705,225.192,140.627z"/>
		<path fill-rule="evenodd" clip-rule="evenodd" fill="#E6E7E8" d="M221.43,105.932c-1.305-1.045-10.265-8.028-21.154-5.615
			c-10.889,2.413-17.931,10.124-21.065,13.258c-3.134,3.134,3.307,50.463,10.619,74.49c7.313,24.026-6.215,34.75,10.479,41.752
			c16.693,7.003,33.273,3.701,43.625-0.753c9.315-4.009,3.501-10.354,4.063-17.358c1.827-22.798-7.297-62.807-10.895-73.002
			C229.267,116.506,221.43,105.932,221.43,105.932z"/>
		<path fill-rule="evenodd" clip-rule="evenodd" fill="#D5D8DA" d="M178.409,120.071c0.243,14.401,5.551,48.703,11.421,67.993
			c7.313,24.026-6.215,34.75,10.479,41.752c16.693,7.003,33.273,3.701,43.625-0.753c3.239-1.395,4.648-3.071,5.133-4.959
			c-4.172,1.184-11.304,3.434-20.642,3.858c-15.62,0.711-24.026-4.701-27.868-7.874c-3.841-3.174-0.338-11.19-0.338-18.242
			s-6.66-30.556-6.66-30.556s17.89,16.062,30.948,20.763c9.535,3.433,18.582,2.27,23.177,1.342c-0.214-2.52-0.485-5.089-0.801-7.673
			c-6.605-2.14-22.031-5.391-29.558-11.166c-9.532-7.313-26.246-46.617-31.992-51.579
			C183.121,121.067,180.681,120.316,178.409,120.071z"/>
		<path fill-rule="evenodd" clip-rule="evenodd" fill="#3C8376" d="M200.963,101.907c0.327,0.065,6.203,2.09,9.402,4.897
			c3.199,2.807,5.223,6.137,2.22,7.704s-13.254,1.437-18.477-2.351c-5.224-3.787-7.025-5.91-4.62-7.31
			S200.963,101.907,200.963,101.907z"/>
		<path fill-rule="evenodd" clip-rule="evenodd" fill="#FBC7B0" d="M203.529,87.498c-2.788,18.831,18.239,25.681,0.97,25.242
			c-5.091-0.129-14.268-4.305-13.022-7.529c1.245-3.225,0.974-16.92,0.974-16.92L203.529,87.498z"/>
		
			<ellipse transform="matrix(0.2128 -0.9771 0.9771 0.2128 104.7403 248.3925)" fill-rule="evenodd" clip-rule="evenodd" fill="#FBD2C0" cx="206.519" cy="59.196" rx="42.239" ry="38.558"/>
		<path fill-rule="evenodd" clip-rule="evenodd" fill="#FBC9B4" d="M225.544,95.036c-8.21,5.368-18.12,7.587-28.012,5.433
			c-14.731-3.208-25.468-15.249-28.723-30.096l4.065-2.425C174.658,94.924,203.403,102.034,225.544,95.036z"/>
		<path fill-rule="evenodd" clip-rule="evenodd" fill="#C96E6B" d="M189.195,52.25c9.035,14.069,0.146,13.371,0.118,13.114
			c-0.197-1.828-4.849-14.659-11.947-17.078c-7.098-2.417-8.783,0.27-9.962,4.772c-1.179,4.502,5.578,28.612,5.162,27.772
			c-0.416-0.839-2.709,0.389-3.998-1.583c-0.796,0.529-0.033-1.394-1.631-1.742c-1.599-0.348-3.335-1.95-3.021-3.392l0.001-0.009
			c-1.72-0.514-2.745-2.454-2.308-4.459c0.048-0.223,0.113-0.436,0.192-0.641c-0.907-0.803-1.343-2.263-1.013-3.778
			c0.038-0.173,0.084-0.34,0.138-0.503c-0.125-0.017-0.25-0.04-0.375-0.067c-2.751-0.599-4.479-3.392-3.859-6.238
			c0.4-1.833,1.675-3.242,3.268-3.852l-0.041-0.364c-2.845-0.731-4.726-3.078-4.232-5.345c0.254-1.17,1.093-2.096,2.243-2.647
			c-1.336-1.069-2.043-2.65-1.704-4.208c0.448-2.056,2.568-3.391,4.979-3.285c0.075-0.304,0.155-0.606,0.239-0.907
			c-0.238-0.003-0.479-0.03-0.719-0.083c-2.091-0.455-3.389-2.646-2.9-4.895c0.271-1.239,1.026-2.236,2.002-2.806
			c0.351-1.493,1.53-2.619,3.053-3.114c-0.624-1.104-0.862-2.408-0.578-3.714c0.638-2.927,3.655-4.756,6.739-4.084
			c0.838,0.182,1.594,0.53,2.238,0.999c-0.291-0.896-0.354-1.903-0.133-2.92c0.615-2.823,3.19-4.659,5.751-4.101
			c1.253,0.272,2.27,1.066,2.911,2.137l0.089-0.054c-0.552-0.798-0.787-1.773-0.575-2.746c0.433-1.986,2.563-3.209,4.759-2.731
			c0.063,0.014,0.127,0.03,0.189,0.046l0.021-0.099c0.626-2.876,3.125-4.772,5.583-4.238c0.677,0.147,1.279,0.464,1.785,0.905
			c1.166-0.782,2.817-1.093,4.521-0.722c1.2,0.261,2.235,0.819,2.999,1.543c0.015-0.254,0.05-0.512,0.105-0.768
			c0.604-2.771,3.424-4.51,6.299-3.883c0.787,0.171,1.497,0.502,2.1,0.949c0.699-2.131,2.813-3.449,4.934-2.987
			c1.624,0.354,2.812,1.655,3.166,3.247c0.433-0.021,0.872,0.013,1.313,0.109c2.44,0.53,4.088,2.78,4.071,5.306
			c0.236,0.063,0.473,0.128,0.708,0.195c0.617-1.822,2.365-2.954,4.102-2.576c1.274,0.278,2.215,1.296,2.549,2.573
			c1.115-0.64,2.48-0.884,3.858-0.583c1.904,0.415,3.354,1.762,3.942,3.429c0.703-0.098,1.441-0.075,2.183,0.086
			c3.111,0.677,5.138,3.545,4.591,6.45c0.997-0.533,2.098-0.73,3.184-0.494c2.928,0.637,4.642,4.185,3.828,7.923
			c-0.441,2.021-1.531,3.685-2.901,4.686c0.003,0.568-0.055,1.148-0.182,1.732c-0.831,3.816-4.27,6.308-7.681,5.565
			c-1.092-0.237-2.047-0.777-2.816-1.526c-1.177,1.467-3.042,2.234-4.908,1.828c-0.435-0.094-0.843-0.247-1.219-0.449
			c-1.79,2.013-4.793,3.007-7.867,2.338c-3.753-0.817-6.381-3.848-6.477-7.156c-0.697,0.101-1.427,0.08-2.161-0.079
			c-0.081-0.018-0.16-0.037-0.239-0.058c-1.219,3.651-4.638,5.936-8.019,5.2c-1.173-0.256-2.199-0.846-3.022-1.665
			c-1.393,1.027-3.398,1.456-5.46,1.007c-1.144-0.249-2.16-0.737-2.98-1.38c-0.902,1.018-2.107,1.664-3.384,1.773
			c0.161,0.526,0.195,1.071,0.078,1.609c-0.259,1.19-1.201,2.104-2.484,2.587c-0.047,0.923,0.002,1.981,0.127,3.243
			C189.195,52.25,189.195,52.25,189.195,52.25z"/>
		<g>
			<path fill="#BF6865" d="M230.534,31.519c0,0,0.782-0.364,1.89-1.092c1.107-0.721,2.61-1.746,4.06-2.94
				c0.712-0.597,1.346-1.201,1.686-1.773c0.358-0.566,0.398-1.082,0.18-1.62c-0.499-1.056-1.324-1.619-1.273-1.633
				c0,0,0.23,0.061,0.584,0.155c0.362,0.146,0.944,0.326,1.507,0.903c0.274,0.293,0.545,0.697,0.67,1.222
				c0.115,0.522,0.061,1.106-0.117,1.635c-0.361,1.072-1.11,1.928-1.955,2.645c-1.725,1.414-3.599,2.042-4.969,2.334
				C231.414,31.652,230.534,31.519,230.534,31.519z"/>
		</g>
		<g>
			<path fill="#BF6865" d="M216.946,25.984c0,0-0.22-0.192-0.562-0.489c-0.325-0.349-0.82-0.875-1.214-1.683
				c-0.399-0.795-0.751-1.869-0.666-3.161c0.084-1.257,0.806-2.829,2.193-3.613l0.504-0.286l0.558-0.208
				c0.401-0.156,0.67-0.181,0.969-0.239l0.22-0.039c0.213-0.045,0.236-0.02,0.363-0.031c0.212-0.011,0.395,0.006,0.565,0.031
				c0.353,0.043,0.662,0.12,0.957,0.214c1.169,0.374,2.097,0.951,2.761,1.644c0.328,0.342,0.57,0.774,0.633,1.198
				c0.001,0.227,0.002,0.425-0.093,0.586c-0.058,0.171-0.159,0.289-0.263,0.381c-0.183,0.209-0.354,0.251-0.463,0.322
				c-0.109,0.057-0.17,0.089-0.17,0.089s0.041-0.055,0.113-0.153c0.064-0.1,0.22-0.244,0.27-0.445
				c0.045-0.09,0.076-0.192,0.063-0.307c0.027-0.107-0.041-0.217-0.071-0.319c-0.133-0.204-0.339-0.407-0.661-0.584
				c-0.626-0.348-1.533-0.639-2.498-0.766c-0.238-0.035-0.486-0.054-0.706-0.048c-0.115-0.002-0.223,0.003-0.303,0.022
				c-0.019,0.005-0.146,0.014-0.076,0.012l-0.215,0.06c-0.283,0.079-0.618,0.151-0.781,0.253l-0.312,0.127l-0.313,0.188
				c-0.85,0.483-1.327,1.291-1.577,2.169c-0.221,0.891-0.186,1.814-0.055,2.581c0.119,0.778,0.366,1.393,0.526,1.83
				C216.827,25.723,216.946,25.984,216.946,25.984z"/>
		</g>
		<g>
			<path fill="#BF6865" d="M194.804,21.203c0.037-0.031-0.723-0.173-1.338-1.291c-0.284-0.555-0.407-1.385-0.194-2.206
				c0.202-0.824,0.678-1.612,1.319-2.253c1.299-1.273,2.981-1.766,4.208-1.598c0.618,0.078,1.081,0.368,1.296,0.629
				c0.228,0.263,0.223,0.431,0.244,0.428c0,0.021-0.156-0.122-0.422-0.171c-0.262-0.059-0.636-0.047-1.056,0.112
				c-0.844,0.308-1.903,1.077-2.862,2.019c-0.969,0.952-1.556,1.896-1.568,2.782c-0.017,0.443,0.109,0.834,0.195,1.116
				C194.734,21.031,194.804,21.203,194.804,21.203z"/>
		</g>
		<g>
			<path fill="#BF6865" d="M181.72,33.029c0,0-0.269-0.107-0.686-0.273c-0.435-0.195-1.059-0.511-1.758-1.052
				c-0.692-0.537-1.475-1.334-1.98-2.5c-0.516-1.146-0.656-2.688-0.167-4.077c0.215-0.702,0.564-1.307,0.958-1.892
				c0.191-0.28,0.374-0.472,0.559-0.703c0.259-0.313,0.437-0.46,0.664-0.678c0.865-0.787,1.788-1.373,2.672-1.661
				c0.886-0.296,1.713-0.209,2.158,0.044c0.464,0.246,0.576,0.476,0.599,0.462c0.005,0.025-0.262-0.136-0.688-0.162
				c-0.436-0.045-1.032,0.126-1.635,0.558c-0.608,0.432-1.244,1.103-1.871,1.91c-0.14,0.188-0.349,0.449-0.43,0.596
				c-0.143,0.237-0.334,0.499-0.454,0.726c-0.224,0.428-0.479,0.911-0.629,1.419c-0.727,2,0.033,3.983,0.968,5.266
				c0.452,0.647,0.898,1.148,1.215,1.488C181.522,32.822,181.72,33.029,181.72,33.029z"/>
		</g>
		<g>
			<path fill="#BF6865" d="M216.695,12.648c0,0,0.001-0.271,0.003-0.688c-0.015-0.433-0.047-1.063-0.288-1.722
				c-0.236-0.657-0.66-1.315-1.372-1.772c-0.687-0.479-1.621-0.795-2.652-0.973c-2.049-0.342-4.187-0.133-5.165,0.63
				c-0.484,0.361-0.579,0.947-0.506,1.347c0.065,0.42,0.183,0.663,0.167,0.662c0.009-0.013-0.195-0.15-0.454-0.537
				c-0.133-0.204-0.268-0.485-0.302-0.858c-0.062-0.38,0.077-0.832,0.322-1.25c0.532-0.829,1.504-1.399,2.595-1.743
				c1.1-0.327,2.367-0.447,3.68-0.224c1.304,0.224,2.548,0.783,3.417,1.667c0.902,0.858,1.252,2.025,1.256,2.887
				c0.019,0.884-0.224,1.526-0.392,1.944C216.816,12.401,216.695,12.648,216.695,12.648z"/>
		</g>
		<g>
			<path fill="#BF6865" d="M203.359,24.977c0.028-0.028-0.667-0.201-1.346-1.172c-0.33-0.48-0.592-1.229-0.517-2.081
				c0.077-0.843,0.479-1.715,1.102-2.383c1.25-1.318,2.992-1.856,4.299-1.35c0.316,0.131,0.578,0.368,0.697,0.612
				c0.132,0.237,0.147,0.456,0.14,0.625c-0.021,0.32-0.108,0.457-0.096,0.464c-0.009,0.011-0.055-0.174-0.209-0.398
				c-0.153-0.217-0.423-0.407-0.765-0.331c-0.695,0.095-1.767,0.828-2.59,1.727c-0.848,0.905-1.23,1.837-1.127,2.751
				c0.039,0.444,0.16,0.835,0.254,1.105C203.295,24.807,203.359,24.977,203.359,24.977z"/>
		</g>
		<g>
			<path fill="#BF6865" d="M168.384,43.597c0,0-0.192,0.031-0.564,0.042c-0.361-0.018-0.946-0.069-1.566-0.521
				c-0.632-0.434-1.117-1.337-1.209-2.314c-0.103-0.981,0.106-2.03,0.57-2.993c0.465-0.965,1.153-1.755,1.918-2.308
				c0.775-0.542,1.639-0.844,2.378-0.821c0.74,0.013,1.266,0.269,1.577,0.492c0.288,0.22,0.419,0.37,0.419,0.37
				c0.013,0.037-0.854-0.298-1.834,0.125c-0.971,0.396-1.955,1.551-2.657,3.012c-0.712,1.46-0.959,2.895-0.441,3.744
				c0.246,0.438,0.642,0.729,0.929,0.912C168.194,43.495,168.384,43.597,168.384,43.597z"/>
		</g>
		<g>
			<path fill="#BF6865" d="M166.372,32.777c0,0-0.151-0.089-0.42-0.296c-0.245-0.22-0.606-0.584-0.87-1.171
				c-0.565-1.162-0.48-3.144,0.551-4.753c1.008-1.586,2.634-2.678,4.132-2.529c0.36,0.05,0.686,0.192,0.889,0.391
				c0.212,0.186,0.321,0.389,0.385,0.559c0.121,0.325,0.1,0.5,0.114,0.502c0.023,0.064-0.572-0.779-1.353-0.453
				c-0.767,0.283-1.7,1.356-2.47,2.589c-0.78,1.247-1.254,2.475-1.273,3.47c-0.016,0.496,0.079,0.918,0.156,1.222
				C166.308,32.592,166.372,32.777,166.372,32.777z"/>
		</g>
		<g>
			<path fill="#BF6865" d="M197.32,12.145c0,0-0.051-0.242-0.187-0.629c-0.13-0.386-0.413-0.91-0.918-1.303
				c-0.984-0.822-2.902-1.016-4.839-0.528c-0.969,0.242-1.843,0.622-2.553,1.099c-0.699,0.485-1.238,1.065-1.584,1.657
				c-0.353,0.593-0.502,1.163-0.617,1.562c-0.074,0.399-0.122,0.659-0.122,0.659s-0.075-0.253-0.19-0.643
				c-0.072-0.433-0.179-1.098-0.011-1.921c0.16-0.82,0.625-1.781,1.427-2.597c0.804-0.807,1.916-1.448,3.17-1.758
				c1.255-0.308,2.525-0.267,3.618,0.065c1.095,0.33,1.998,1,2.463,1.757c0.474,0.755,0.514,1.475,0.466,1.91
				C197.396,11.92,197.32,12.145,197.32,12.145z"/>
		</g>
		<g>
			<path fill="#BF6865" d="M237.076,20.951c-0.046,0.001,0.34-0.693,0.128-1.512c-0.183-0.802-1.019-1.639-2.093-2.387
				c-0.538-0.383-1.094-0.658-1.612-0.902c-0.259-0.073-0.52-0.216-0.759-0.242c-0.119-0.028-0.241-0.057-0.363-0.086l-0.334-0.014
				c-0.24-0.033-0.401,0.01-0.584,0.031c-0.185,0.002-0.36,0.076-0.493,0.148c-0.261,0.111-0.432,0.185-0.432,0.185
				s0.087-0.165,0.22-0.415c0.067-0.136,0.156-0.288,0.352-0.443c0.178-0.162,0.412-0.371,0.686-0.473l0.445-0.196
				c0.17-0.035,0.339-0.069,0.505-0.103c0.364-0.09,0.73-0.044,1.139-0.035c0.778,0.112,1.625,0.377,2.363,0.897
				c0.731,0.527,1.335,1.175,1.68,1.925c0.336,0.742,0.476,1.535,0.28,2.16c-0.048,0.313-0.208,0.555-0.341,0.754
				c-0.113,0.208-0.268,0.336-0.4,0.431C237.209,20.869,237.076,20.951,237.076,20.951z"/>
		</g>
		<g>
			<path fill="#BF6865" d="M242.863,21.455c0,0,0.067-0.116,0.221-0.325c0.141-0.224,0.41-0.495,0.876-0.747
				c0.477-0.214,1.255-0.285,1.964,0.098c0.674,0.378,1.172,1.013,1.474,1.708c0.591,1.411,0.349,2.794-0.06,3.646
				c-0.435,0.918-0.969,1.129-0.952,1.155c0,0,0.012-0.156,0.03-0.391c0.023-0.125,0.018-0.277,0-0.431
				c-0.01-0.153-0.022-0.312-0.061-0.513c-0.115-0.761-0.4-1.754-0.796-2.679c-0.199-0.457-0.398-0.84-0.609-1.117
				c-0.209-0.25-0.462-0.41-0.798-0.494c-0.33-0.035-0.675-0.031-0.903,0.03C243.016,21.431,242.863,21.455,242.863,21.455z"/>
		</g>
		<g>
			<path fill="#BF6865" d="M165.365,63.223c0,0-0.144,0.059-0.425,0.146c-0.141,0.038-0.316,0.106-0.527,0.132
				c-0.211,0.018-0.459,0.032-0.744,0.035c-0.545-0.065-1.287-0.233-1.899-0.798c-0.621-0.53-1.102-1.362-1.247-2.248
				c-0.292-1.797,0.461-3.288,1.189-4.072c0.167-0.205,0.37-0.373,0.541-0.507c0.167-0.143,0.313-0.233,0.444-0.292
				c0.243-0.119,0.403-0.196,0.403-0.196s-0.07,0.164-0.177,0.412c-0.068,0.128-0.132,0.292-0.176,0.472
				c-0.055,0.178-0.117,0.359-0.159,0.594c-0.213,0.885-0.289,2.092-0.096,3.239c0.197,1.133,0.703,1.943,1.464,2.439
				c0.185,0.102,0.367,0.202,0.537,0.295c0.168,0.086,0.327,0.127,0.456,0.183C165.2,63.157,165.365,63.223,165.365,63.223z"/>
		</g>
		<g>
			<path fill="#BF6865" d="M162.346,53.158c0,0-0.12-0.035-0.334-0.125c-0.2-0.106-0.565-0.197-0.872-0.511
				c-0.157-0.151-0.36-0.309-0.513-0.531c-0.137-0.231-0.297-0.492-0.411-0.789c-0.067-0.301-0.167-0.645-0.163-0.986
				c0.026-0.332,0.02-0.715,0.148-1.032c0.104-0.332,0.223-0.65,0.409-0.926c0.171-0.293,0.349-0.539,0.521-0.7
				c0.082-0.083,0.169-0.17,0.26-0.262l0.064-0.062c0.083-0.11,0.063-0.064,0.1-0.104l0.139-0.112
				c0.187-0.146,0.37-0.275,0.55-0.387c0.185-0.113,0.346-0.206,0.571-0.288c0.064-0.019,0.126-0.047,0.262-0.044
				c0.045-0.004,0.17,0.044,0.22,0.099c0.039,0.048,0.062,0.103,0.076,0.154c0.01,0.142-0.031,0.203-0.056,0.263
				c-0.123,0.223-0.219,0.295-0.216,0.304c-0.005,0.006-0.024-0.142-0.095-0.333l-0.033-0.065c-0.004-0.014-0.015-0.012-0.021-0.017
				c-0.01-0.001-0.026-0.002,0.051-0.023c0.03,0.002,0.067-0.021,0.083-0.045c-0.009,0.022,0.006-0.014-0.002,0.04
				c0.001,0.076,0.092,0.237,0.067,0.205c-0.022,0.083-0.093,0.242-0.153,0.409c-0.074,0.19-0.148,0.381-0.219,0.563l-0.063,0.155
				c0.003,0.006-0.054,0.096-0.001,0.035l-0.03,0.084c-0.046,0.12-0.09,0.235-0.132,0.344c-0.115,0.244-0.175,0.459-0.233,0.652
				c-0.083,0.193-0.127,0.408-0.196,0.62c-0.261,0.817-0.34,1.531-0.147,2.229C162.133,52.647,162.369,53.149,162.346,53.158z"/>
		</g>
		<g>
			<path fill="#BF6865" d="M178.952,44.1c0,0-0.163-0.035-0.461-0.126c-0.293-0.099-0.72-0.272-1.187-0.644
				c-0.462-0.364-0.96-0.994-1.152-1.866c-0.193-0.867-0.01-1.881,0.481-2.715c0.983-1.651,2.87-2.454,4.213-1.966
				c0.663,0.253,0.944,0.745,1.037,1.058c0.092,0.304,0.079,0.471,0.088,0.472c0.008,0.055-0.519-0.69-1.302-0.545
				c-0.736,0.11-1.694,0.95-2.311,1.993c-0.628,1.039-0.68,2.061-0.275,2.943c0.186,0.426,0.419,0.779,0.591,1.018
				C178.842,43.95,178.952,44.1,178.952,44.1z"/>
		</g>
		<path fill-rule="evenodd" clip-rule="evenodd" fill="#C06867" d="M189.195,52.25c9.035,14.069,0.146,13.371,0.118,13.114
			c0,0,2.683-2.707,2.161-5.188c-0.522-2.481-3.004-7.051-4.962-11.36c-1.958-4.31,0.261-7.574,0.261-7.574s-3.786-1.959-3.395-4.31
			c0.391-2.35,5.484-2.481,5.484-2.481s1.438-3.003,4.571-3.787c3.134-0.783,6.529,3.787,6.529,3.787s2.481-2.874,4.962-1.959
			c2.481,0.914,3.918,1.567,3.918,1.567s-0.262-1.958,4.178-3.917s7.313,1.175,7.313,1.175s3.982,5.354,4.961,5.811
			c0.98,0.457,0.979-1.958,4.048-2.546c3.069-0.588,4.244,0.914,4.244,0.914s3.07-1.829,4.964-2.416s3.591,1.763,3.982,1.763
			c0.393,0,3.072-1.698,3.006-3.33c-0.066-1.632-1.045-3.787-0.522-3.722c0.522,0.065,1.563,0.733,3.265-2.546
			c0.681-1.313,1.172-2.663,1.517-3.81c0.534,1.355,0.677,2.993,0.313,4.67c-0.441,2.021-1.531,3.685-2.901,4.686
			c0.003,0.568-0.055,1.148-0.182,1.732c-0.831,3.816-4.27,6.308-7.681,5.565c-1.092-0.237-2.047-0.777-2.816-1.526
			c-1.177,1.467-3.042,2.234-4.908,1.828c-0.435-0.094-0.843-0.247-1.219-0.449c-1.79,2.013-4.793,3.007-7.867,2.338
			c-3.753-0.817-6.381-3.848-6.477-7.156c-0.697,0.101-1.427,0.08-2.161-0.079c-0.081-0.018-0.16-0.037-0.239-0.058
			c-1.219,3.651-4.638,5.936-8.019,5.2c-1.173-0.256-2.199-0.846-3.022-1.665c-1.393,1.027-3.398,1.456-5.46,1.007
			c-1.144-0.249-2.16-0.737-2.98-1.38c-0.902,1.018-2.107,1.664-3.384,1.773c0.161,0.526,0.195,1.071,0.078,1.609
			c-0.259,1.19-1.201,2.104-2.484,2.587c-0.047,0.923,0.002,1.981,0.127,3.243C189.195,52.25,189.195,52.25,189.195,52.25z"/>
		<path fill-rule="evenodd" clip-rule="evenodd" fill="#404041" d="M229.89,53.317c2.479,0.54,4.375,2.646,5.444,5.625
			c0.548-0.653,1.138-1.098,1.738-1.372c0.714-0.327,1.439-0.414,2.127-0.327c0.679,0.085,1.319,0.336,1.874,0.687
			c0.453,0.287,0.854,0.645,1.174,1.031c1.341-3.335,2.82-5.394,3.936-5.151c1.798,0.392,1.972,6.613,0.386,13.895
			c-1.586,7.283-4.33,12.869-6.128,12.477c-1.798-0.391-1.971-6.613-0.385-13.895c0.411-1.887,0.899-3.661,1.43-5.246
			c-1.357-2.14-3.813-1.784-5.448,0.615c0.436,2.543,0.377,5.461-0.278,8.468c-1.783,8.188-7.302,13.938-12.326,12.844
			c-5.025-1.095-7.653-8.619-5.87-16.806c0.518-2.38,1.352-4.554,2.399-6.415c-6.642-1.316-45.051-8.409-45.051-8.409L175.569,49
			c0,0,38.819,7.848,45.465,9.053C223.515,54.565,226.796,52.643,229.89,53.317z"/>
		
			<ellipse transform="matrix(0.2128 -0.9771 0.9771 0.2128 111.8328 275.5919)" fill-rule="evenodd" clip-rule="evenodd" fill="#D4EEF5" cx="226.944" cy="68.394" rx="14.264" ry="8.403"/>
		
			<ellipse transform="matrix(0.2128 -0.9771 0.9771 0.2128 78.6861 214.7987)" fill-rule="evenodd" clip-rule="evenodd" fill="#FBD2C0" cx="172.648" cy="58.566" rx="11.723" ry="11.238"/>
		<path fill-rule="evenodd" clip-rule="evenodd" fill="#F7A183" d="M168.079,51.956c-3.012,2.496-3.808,6.63-1.957,9.712
			c1.85,3.082,3.942,5.534,7.271,4c3.328-1.535,4.195-4.55,2.226-5.399c-1.969-0.849-4.272-3.294-2.936-4.369
			c1.337-1.074,2.562,0.295,3.391-1.1s-1.163-3.463-1.163-3.463C175.057,51.428,171.431,49.178,168.079,51.956z"/>
		<path fill-rule="evenodd" clip-rule="evenodd" fill="#F8A98E" d="M173.216,65.746l0.177-0.078c3.328-1.535,4.195-4.55,2.226-5.399
			c-1.969-0.849-4.272-3.294-2.936-4.369c0.619-0.497,1.214-0.471,1.757-0.438c0.505-0.379,0.994-0.42,1.449-0.404
			c0.063-0.073,0.125-0.159,0.184-0.259c0.829-1.396-1.163-3.463-1.163-3.463c0.097,0.06-1.461-0.907-3.498-0.759
			c-0.542,0.218-1.092,0.536-1.636,0.987c-3.012,2.496-3.808,6.629-1.957,9.711C169.296,63.735,170.927,65.793,173.216,65.746z"/>
		
			<ellipse transform="matrix(0.2127 -0.9771 0.9771 0.2127 125.765 291.4044)" fill-rule="evenodd" clip-rule="evenodd" fill="#D4EEF5" cx="243.72" cy="67.656" rx="12.687" ry="2.665"/>
		<path fill-rule="evenodd" clip-rule="evenodd" fill="#FBD2C0" d="M238.1,64.107c0,0,9.994,11.795,8.983,13.838
			c-1.011,2.043-14.316,3.899-14.316,3.899L238.1,64.107z"/>
		<path fill-rule="evenodd" clip-rule="evenodd" fill="#A15641" d="M202.843,81.285c4.996,5.334,17.618,11.247,24.543,9.484
			C222.916,93.661,207.994,89.927,202.843,81.285z"/>
		<path fill-rule="evenodd" clip-rule="evenodd" fill="#D7B4A5" d="M295.002,114.651c0,0,2.872-8.88,5.876-13.319
			s5.515-7.393,9.141-6.529c3.627,0.864,8.095,5.746,7.704,11.753c-0.392,6.006-0.261,9.663-5.746,12.014
			C306.494,120.92,295.002,114.651,295.002,114.651z"/>
		<polygon fill-rule="evenodd" clip-rule="evenodd" fill="#5692A8" points="373.554,74.807 309.436,59.872 294.028,150.841 
			348.73,166.683 		"/>
		<path fill-rule="evenodd" clip-rule="evenodd" fill="#FFFFFF" d="M367.75,79.384c-1.566-0.261-52.493-10.708-52.493-10.708
			l-17.498,77.565l42.831,9.663L367.75,79.384z"/>
		<path fill-rule="evenodd" clip-rule="evenodd" fill="#E2BBAA" d="M291.734,163.034c-0.066-0.458,1.947-5.999,4.896-8.292
			c2.949-2.294,5.875-6.072,7.574-3.004c1.698,3.068-2.043,7.83-4.505,10.316C297.236,164.54,291.734,163.034,291.734,163.034z"/>
		<polygon fill-rule="evenodd" clip-rule="evenodd" fill="#61A6BF" points="373.554,74.807 315.704,87.032 294.028,178.002 
			348.73,166.683 		"/>
		<path fill-rule="evenodd" clip-rule="evenodd" fill="#FBD2C0" d="M280.89,167.735c0.784-0.392,10.317-5.615,12.667-7.704
			c2.35-2.089,8.618-6.791,15.408-5.876c12.526,1.687,10.273,15.155,5.093,18.281c-5.416,4.021-31.236,5.115-31.993,4.048
			C279.836,173.338,280.89,167.735,280.89,167.735z"/>
		<path fill-rule="evenodd" clip-rule="evenodd" fill="#3C8376" d="M194.833,120.38c-15.387-19.783-28.433,3.442-22.307,12.373
			c4.589,6.689,19.06,43.652,50.5,55.442c16.712,6.267,39.159,2.798,65.397-10.323c2.516-1.258-2.158-14.173-4.701-13.58
			C226.539,177.61,227.438,190.698,194.833,120.38z"/>
		<path fill-rule="evenodd" clip-rule="evenodd" fill="#3B7E72" d="M172.517,120.362c-1.921,4.218-2.173,9.211,0.009,12.391
			c4.589,6.689,19.06,43.652,50.5,55.442c16.712,6.267,39.159,2.798,65.397-10.323c0.971-0.486,0.87-2.709,0.235-5.222
			c-8.877,3.548-37.024,14.492-45.346,14.054c-9.924-0.522-28.206-5.745-41.002-20.632
			C192.408,154.554,178.365,130.609,172.517,120.362z"/>
		<path fill-rule="evenodd" clip-rule="evenodd" fill="#E2BBAA" d="M301.859,104.61c3.458-1.97,11.168-6.346,10.243-2.463
			c-0.925,3.883-7.438,7.674-7.438,7.674s-1.69,1.513-3.779,4.517c-2.089,3.003-1.968,7.642-1.968,7.642l-6.817-7.176
			C295.818,111.495,298.173,106.71,301.859,104.61z"/>
		<path fill-rule="evenodd" clip-rule="evenodd" fill="#373737" d="M182.389,383.274c-0.442,0.761-14.924,4.76-14.924,4.76
			c-0.922,0.325-12.068,2.825-13.059,2.812c-0.52,3.396-0.306,5.869-0.348,7.318c-0.002,0.099,8.859-0.681,18.918-0.535
			c10.523,0.152,22.521,0.822,28.221,0.102c11.247-1.424,5.074-13.582-17.431-14.345
			C183.307,383.371,182.846,383.336,182.389,383.274z"/>
		<path fill-rule="evenodd" clip-rule="evenodd" fill="#373737" d="M208.772,384.975c-1.044,5.224,0.196,13.147,4.375,13.147
			s41.617-0.191,47.886-0.188c6.785,0.005,7.708-6.467,0.557-11.176c-6.449-4.248-20.371-1.113-30.439-7.789
			c-5.535,2.014-12.231,3.914-18.562,3.259c-0.895-0.093-1.985-0.193-3.215-0.301C209.078,383.434,208.871,384.485,208.772,384.975z
			"/>
		<path fill-rule="evenodd" clip-rule="evenodd" fill="#404041" d="M218.666,358.981c-0.522,0.653-6.548,8.956-6.548,8.956
			l-3.694,21.07c0,0,6.846-1.037,15.465-3.648c8.619-2.611,11.069-4.366,11.069-4.366s0.377-28.441,1.076-28.279
			S218.666,358.981,218.666,358.981z"/>
		<path fill-rule="evenodd" clip-rule="evenodd" fill="#3C3D3E" d="M218.666,358.981c-0.522,0.653-6.548,8.956-6.548,8.956
			l-3.694,21.07c0,0,6.846-1.037,15.465-3.648c8.619-2.611,11.069-4.366,11.069-4.366l0.025-1.739v-0.001
			c0,0-18.54,5.28-18.584,4.182c-0.017-0.438,2.03-11.632,4.483-25.206C219.534,358.688,218.666,358.981,218.666,358.981z"/>
		<path fill-rule="evenodd" clip-rule="evenodd" fill="#D0D2D3" d="M199.552,396.362c-4.365,0.485-36.469-0.448-45.645-0.713
			c-0.033,1.041-0.016,2.276,0.119,2.905c0,0,35.864,1.172,47.009-0.041c3.216-0.35,5.619-2.43,5.761-3.743
			C206.938,393.456,203.917,395.878,199.552,396.362z"/>
		<path fill-rule="evenodd" clip-rule="evenodd" fill="#D0D2D3" d="M209.45,394.871c0.771,1.925,0.738,3.463,3.682,3.463
			c2.944,0,41.618-0.191,47.886-0.188c6.443,0.003,6.057-5.062,5.5-4.956c-3.168,0.605-8.343,1.941-16.562,2.129
			C241.434,395.512,217.604,395.055,209.45,394.871z"/>
		<path fill-rule="evenodd" clip-rule="evenodd" fill="#F4F7F9" d="M220.857,80.433c2.316-7.276,7.751-13.24,14.805-16.446
			c-0.304-4.971-2.419-8.818-5.683-9.529c-4.534-0.987-9.568,4.452-11.244,12.15C217.494,72.306,218.442,77.644,220.857,80.433z"/>
		<path fill-rule="evenodd" clip-rule="evenodd" fill="#F4F7F9" d="M245.231,55.967c-0.859,1.046-1.833,3.163-2.719,5.898
			c0.846-0.149,1.705-0.262,2.574-0.336c0.753-0.064,1.515-0.1,2.285-0.104c0.282-3.523-0.033-5.966-0.952-6.166
			C246.07,55.184,245.665,55.438,245.231,55.967z"/>
	</g>
	<rect x="189.356" y="240.796" fill-rule="evenodd" clip-rule="evenodd" fill="#A15641" width="140.585" height="157.509"/>
	<rect x="340.91" y="240.796" fill-rule="evenodd" clip-rule="evenodd" fill="#A15641" width="139.91" height="157.509"/>
	<path fill-rule="evenodd" clip-rule="evenodd" fill="#58574B" d="M510.953,394.464l-0.406,3.841l-18.865-0.025l-50.221-0.069
		l0.014-2.26c0.156-3.105,1.225-4.056,9.869-6.757l39.74-15.563c0,0,6.611,0.842,15.227,4.249
		C514.924,381.287,510.953,394.464,510.953,394.464z"/>
	<path fill-rule="evenodd" clip-rule="evenodd" fill="#443218" d="M510.953,394.464l-0.406,3.841l-18.865-0.025l-50.221-0.069
		l0.014-2.26c0.01-0.225,0.025-0.437,0.051-0.64L510.953,394.464z"/>
	<rect x="326.209" y="242.046" fill-rule="evenodd" clip-rule="evenodd" fill="#C96C38" width="17.76" height="156.259"/>
	<rect x="326.209" y="242.046" fill-rule="evenodd" clip-rule="evenodd" fill="#BF693A" width="8.879" height="156.259"/>
	<polygon fill-rule="evenodd" clip-rule="evenodd" fill="#58595B" points="293.682,148.853 296.974,148.853 298.619,233.826 
		292.037,233.826 	"/>
	<path fill-rule="evenodd" clip-rule="evenodd" fill="#808184" d="M295.259,167.804c2.625,0,4.766-6.1,4.766-13.579
		c0-7.48-2.141-13.581-4.766-13.581s-4.767,6.101-4.767,13.581C290.493,161.704,292.634,167.804,295.259,167.804z"/>
	<path fill-rule="evenodd" clip-rule="evenodd" fill="#404041" d="M293.259,96.209l-2.422-0.175l-8.546,118.177l2.36,0.172
		c6.164-13.372,11.036-34.487,12.785-58.469c0.349-4.821,0.558-9.548,0.634-14.137C298.376,123.549,296.583,107.495,293.259,96.209z
		"/>
	
		<rect x="282.928" y="95.833" transform="matrix(-0.9974 -0.0727 0.0727 -0.9974 559.853 330.5422)" fill-rule="evenodd" clip-rule="evenodd" fill="#58595B" width="6.035" height="118.487"/>
	<path fill-rule="evenodd" clip-rule="evenodd" fill="#404041" d="M263.982,234.352c2.509-2.974,6.203-4.689,10.095-4.689h32.88
		c3.951,0,7.698,1.741,10.245,4.758h-53.277L263.982,234.352z"/>
	<polygon fill-rule="evenodd" clip-rule="evenodd" fill="#58595B" points="372.325,148.853 369.032,148.853 367.388,233.826 
		373.97,233.826 	"/>
	<path fill-rule="evenodd" clip-rule="evenodd" fill="#808184" d="M370.26,167.804c2.625,0,4.767-6.1,4.767-13.579
		c0-7.48-2.142-13.581-4.767-13.581s-4.766,6.101-4.766,13.581C365.494,161.704,367.635,167.804,370.26,167.804z"/>
	<path fill-rule="evenodd" clip-rule="evenodd" fill="#404041" d="M372.748,96.209l2.422-0.175l8.547,118.177l-2.361,0.172
		c-6.164-13.372-11.035-34.487-12.785-58.469c-0.348-4.821-0.559-9.548-0.634-14.137
		C367.631,123.549,369.424,107.495,372.748,96.209z"/>
	
		<rect x="377.044" y="95.833" transform="matrix(0.9973 -0.0728 0.0728 0.9973 -10.2752 28.0618)" fill-rule="evenodd" clip-rule="evenodd" fill="#58595B" width="6.034" height="118.487"/>
	<path fill-rule="evenodd" clip-rule="evenodd" fill="#404041" d="M402.023,234.352c-2.509-2.974-6.201-4.689-10.095-4.689h-32.88
		c-3.95,0-7.698,1.741-10.244,4.758h53.277L402.023,234.352z"/>
	<g>
		<polygon fill-rule="evenodd" clip-rule="evenodd" fill="#58595B" points="200.03,227.753 205.386,227.499 205.896,230.845 
			199.84,231.133 		"/>
		<polygon fill-rule="evenodd" clip-rule="evenodd" fill="#58595B" points="207.755,227.386 213.108,227.131 213.618,230.477 
			207.564,230.766 		"/>
		<polygon fill-rule="evenodd" clip-rule="evenodd" fill="#58595B" points="215.475,227.019 220.829,226.763 221.339,230.109 
			215.286,230.398 		"/>
		<polygon fill-rule="evenodd" clip-rule="evenodd" fill="#58595B" points="223.196,226.651 228.549,226.396 229.06,229.743 
			223.006,230.03 		"/>
		<polygon fill-rule="evenodd" clip-rule="evenodd" fill="#58595B" points="230.916,226.284 236.274,226.029 236.784,229.376 
			230.727,229.663 		"/>
		<polygon fill-rule="evenodd" clip-rule="evenodd" fill="#58595B" points="238.639,225.917 243.995,225.661 244.505,229.009 
			238.447,229.296 		"/>
		<polygon fill-rule="evenodd" clip-rule="evenodd" fill="#58595B" points="246.359,225.548 251.715,225.294 252.225,228.641 
			246.169,228.929 		"/>
		<path fill-rule="evenodd" clip-rule="evenodd" fill="#404041" d="M195.494,231.709c-0.022-0.452,0.137-0.894,0.443-1.229
			c0.304-0.335,0.729-0.534,1.182-0.556l62.688-2.983c0.451-0.021,0.894,0.138,1.229,0.442c0.334,0.305,0.535,0.729,0.557,1.182
			l0.051,1.096c0.045,0.941-0.682,1.742-1.622,1.786l-62.689,2.983c-0.94,0.044-1.74-0.683-1.785-1.623L195.494,231.709z"/>
		<path fill-rule="evenodd" clip-rule="evenodd" fill="#404041" d="M256.836,229.688l1.667-0.238l0.03,1.909l-0.32,3.062h-1.271
			C256.942,234.42,256.867,229.684,256.836,229.688z"/>
	</g>
	<g>
		<polygon fill-rule="evenodd" clip-rule="evenodd" fill="#58595B" points="509.395,227.274 504.039,227.021 503.529,230.367 
			509.584,230.654 		"/>
		<polygon fill-rule="evenodd" clip-rule="evenodd" fill="#58595B" points="501.67,226.907 496.316,226.653 495.807,229.998 
			501.859,230.287 		"/>
		<polygon fill-rule="evenodd" clip-rule="evenodd" fill="#58595B" points="493.949,226.54 488.596,226.285 488.086,229.631 
			494.139,229.92 		"/>
		<polygon fill-rule="evenodd" clip-rule="evenodd" fill="#58595B" points="486.229,226.174 480.875,225.918 480.365,229.265 
			486.418,229.553 		"/>
		<polygon fill-rule="evenodd" clip-rule="evenodd" fill="#58595B" points="478.51,225.806 473.15,225.552 472.641,228.898 
			478.699,229.186 		"/>
		<polygon fill-rule="evenodd" clip-rule="evenodd" fill="#58595B" points="470.785,225.438 465.43,225.184 464.92,228.53 
			470.979,228.818 		"/>
		<polygon fill-rule="evenodd" clip-rule="evenodd" fill="#58595B" points="463.066,225.07 457.709,224.816 457.199,228.162 
			463.256,228.451 		"/>
		<path fill-rule="evenodd" clip-rule="evenodd" fill="#404041" d="M513.932,231.23c0.021-0.451-0.139-0.894-0.443-1.229
			s-0.729-0.535-1.182-0.557l-62.689-2.982c-0.451-0.021-0.893,0.137-1.229,0.442c-0.334,0.304-0.535,0.729-0.557,1.182
			l-0.051,1.096c-0.045,0.941,0.682,1.741,1.621,1.785l62.689,2.983c0.941,0.044,1.74-0.682,1.785-1.623L513.932,231.23z"/>
		<path fill-rule="evenodd" clip-rule="evenodd" fill="#404041" d="M452.588,229.21l-1.666-0.238l-0.031,1.908l0.32,3.062h1.271
			C452.482,233.941,452.557,229.206,452.588,229.21z"/>
	</g>
	<path fill-rule="evenodd" clip-rule="evenodd" fill="#EFC8B7" d="M137.235,159.989c-10.552,15.844,5.546,31.007-9.886,23.245
		c-4.549-2.288-11.07-9.978-8.568-12.363c2.502-2.387,8.096-14.89,8.096-14.89L137.235,159.989z"/>
	<path fill-rule="evenodd" clip-rule="evenodd" fill="#FBD2C0" d="M159.505,81.183c18.522,3.299,28.585,34.803,21.363,48.302
		c-2.5,4.673,9.778,9.028,10.271,11.612c0.724,3.796-7.217,6.463-12.527,8.416c-2.227,3.812-2.039,6.418-2.772,9.854
		c-0.194,0.91-1.482,3.34-4.672,2.038c-7.482-3.021-14.175-5.666-14.175-5.666c-1.243,5.521,6.413,8.916,11.41,11.201
		c-6.046,4.781-12.934,7.345-25.065,5.188c-12.132-2.156-29.96-26.328-25.496-51.441C122.306,95.572,140.983,77.883,159.505,81.183z
		"/>
	<path fill-rule="evenodd" clip-rule="evenodd" fill="#FBC9B4" d="M191.139,141.097c0.724,3.796-7.217,6.463-12.527,8.416
		c0,0-0.771-0.275-0.51-1.19c0.261-0.914,0.914-0.261,5.288-2.023C187.764,144.536,191.139,141.097,191.139,141.097z"/>
	<path fill-rule="evenodd" clip-rule="evenodd" fill="#FBC9B4" d="M168.398,166.942c-6.045,4.779-12.933,7.341-25.062,5.185
		c-10.149-1.804-24.283-19.017-26.018-39.298c0.347-0.151,0.685-0.296,1.014-0.435c0.392,0.653,7.602,5.458,7.602,5.458l5.928,1.155
		c0,0-4.127,1.482-4.781,8.273c-0.653,6.79,5.615,17.238,12.667,20.372s8.867,4.067,16.584,3.134
		C163.925,169.867,168.26,167.033,168.398,166.942z"/>
	<path fill-rule="evenodd" clip-rule="evenodd" fill="#F48366" d="M188.11,94.808c0.199,1.354,0.227,2.668,0.089,3.968
		c0.403,1.188-0.381-2.056,1.654,5.844s-0.891,23.807-7.472,28.5c5.371-9.354,6.562-16.787,3.85-27.151
		c-3.866,13.079-14.848,24.116-14.848,24.116c3.563-3.804,6.291-9.802,8.484-16.164c-0.896,0.972-1.951,2.083-3.214,3.388
		c-6.438,6.648-15.326,5.694-23.56,7.358c-8.235,1.663-17.925,4.752-17.925,4.752c-10.852,12.332-10.511,4.327-13.607,20.951
		c0,0-1.065,2.158-2.818-0.468c-2.181,6.125-8.21,20.197-18.741,24.384c-13.59,5.401-18.259,3.249-18.259,3.249
		s2.529-3.399,5.136-8.59c2.606-5.189,4.824-12.253,15.041-18.977c5.989-3.941,9.976-5.923,12.25-6.89
		c-4.016-3.261-8.938-8.226-10.037-13.645c-4.374-21.572,18.602-52.221,43.758-56.692C167.514,69.254,188.11,94.808,188.11,94.808z"
		/>
	<path fill-rule="evenodd" clip-rule="evenodd" fill="#E97556" d="M118.321,151.049c-2.478,6.583-8.402,19.294-18.32,23.237
		c-13.59,5.401-18.259,3.249-18.259,3.249s5.072-3.023,8.99-5.767c3.917-2.742,15.408-18.804,15.278-18.15
		c-0.13,0.652-4.44,10.185-6.725,13.841c-2.285,3.656-5.811,6.66-4.766,6.203s9.338-7.508,11.819-10.185
		c2.48-2.677,7.704-11.426,7.704-11.426s-3.917,10.969-3.46,10.642c0.458-0.326,6.986-13.058,6.986-13.058L118.321,151.049z"/>
	<path fill-rule="evenodd" clip-rule="evenodd" fill="#E97556" d="M188.11,94.808c0.199,1.354,0.227,2.668,0.089,3.968
		c0.403,1.188-0.381-2.056,1.654,5.844s-0.891,23.807-7.472,28.5c5.371-9.354,6.562-16.787,3.85-27.151
		c-3.866,13.079-14.848,24.116-14.848,24.116c3.563-3.804,6.291-9.802,8.484-16.164c-0.896,0.972-1.951,2.083-3.214,3.388
		c-6.438,6.648-15.326,5.694-23.56,7.358c-8.235,1.663-17.925,4.752-17.925,4.752c-10.852,12.332-10.511,4.327-13.607,20.951
		c0,0-0.883,1.786-2.363,0.129l-0.048-0.131c0,0-0.051-6.252,1.125-9.386c1.175-3.134,1.334-3.402,1.958-4.31
		c0.624-0.907,1.378-9.463,5.616-12.928c4.238-3.465,22.067-0.521,34.995-6.397c12.928-5.877,19.849-15.67,19.849-15.67
		s0.36,4.079,0.066,5.908c-0.294,1.828-1.175,4.831-0.946,4.472c0.228-0.359,3.067-7.017,3.395-10.281
		c0.327-3.265,0.307-6.372,0.307-6.372l2.47,10.441L188.11,94.808z"/>
	<path fill-rule="evenodd" clip-rule="evenodd" fill="#A15641" d="M119.149,150.368c0.255-0.667-4.196-4.845-5.032-7.327
		c-1.368-0.259-3.254,0.845-3.42,1.655c2.236,2.887,4.503,5.813,6.74,8.699C117.88,153.621,119.836,151.969,119.149,150.368z"/>
	<path fill-rule="evenodd" clip-rule="evenodd" fill="#F9A64A" d="M183.806,123.122c1.403,0.249,1.349,4.626,0.099,11.664
		c-1.251,7.037-3.66,12.494-5.38,12.188c-3.297-0.588-0.211-15.651,0.493-18.415l-44.374-2.494l0.878-3.518l44.467,2.754
		C181.16,121.942,182.402,122.873,183.806,123.122z"/>
	<path fill-rule="evenodd" clip-rule="evenodd" fill="#D4EEF5" d="M183.292,123.906c1.392,0.247,2.01,4.189,0.817,10.899
		c-1.192,6.709-3.288,11.947-4.68,11.7c-1.392-0.248-1.554-5.888-0.361-12.598C180.262,127.199,181.9,123.658,183.292,123.906z"/>
	<path fill-rule="evenodd" clip-rule="evenodd" fill="#EEC7B7" d="M93.635,277.742c1.074,3.229,106.246,5.343,114.761,15.562
		c2.256,2.582,10.817,33.687,20.363,59.292c11.432,30.667,17.976,39.112,55.688,38.104c6.326-0.17,3.361,7.578-5.763,7.578
		c-14.625,0-29.25,0-43.875,0c-9.182,0-13.806-6.211-11.525-13.822c-2.2-9.916-6.33-17.509-8.449-25.027
		c-15.05-53.406-25.493-51.572-26.351-51.254c-1.632-1.958-83.804,0.211-95.865-4.573C60.463,290.927,64.702,280.667,93.635,277.742
		z"/>
	<path fill-rule="evenodd" clip-rule="evenodd" fill="#E6C0AF" d="M223.186,384.797l0.098-0.342
		c-2.2-9.916-6.33-17.509-8.449-25.027c-0.227-0.806-0.453-1.597-0.677-2.377c1.44-2.754,2.929-4.434,2.929-4.434
		c0.13,0.783,0.784,10.315,6.399,17.759c5.615,7.443,15.372,11.983,14.886,13.319c-0.486,1.337-5.853,3.871-7.307,4.197
		C230.379,388.046,226.968,387.033,223.186,384.797z"/>
	<path fill-rule="evenodd" clip-rule="evenodd" fill="#373737" d="M97.286,278.184c1.042,2.134,105.777,2.177,113.983,13.554
		c2.155,2.587,9.133,33.57,19.674,58.156c-6.355,3.392-14.589,7.64-19.857,10.466c-9.938-23.475-21.755-51.167-22.603-52.186
		c-1.632-1.958-84.899,3.977-96.96-0.808c-23.836-9.455-8.757-19.139-6.416-23.943c-0.13-0.406-0.263-0.819-0.354-1.096
		L97.286,278.184z"/>
	<path fill-rule="evenodd" clip-rule="evenodd" fill="#DC5269" d="M252.661,380.226c-1.567-0.653-3.787,0.915-3.265,4.832
		c0.522,3.917-7.965,4.701-12.013,5.093c-4.048,0.391-13.839-7.388-13.839-7.388s-1.7,5.299-1.961,8.693s1.827,6.689,1.827,6.689
		s59.808,0.356,61.44,0c1.633-0.355,4.897-2.118,4.701-5.971s-1.306-4.896-6.072-4.57
		C278.713,387.931,252.661,380.226,252.661,380.226z"/>
	<path fill-rule="evenodd" clip-rule="evenodd" fill="#DB9566" d="M252.836,398.277c15.374,0.046,31.186,0.049,32.014-0.132
		c1.633-0.355,4.897-2.118,4.701-5.971c-0.03-0.59-0.081-1.113-0.164-1.576c-0.695,0.353-1.331,0.832-1.74,1.485
		c-1.41,2.25-5.509,4.19-13.163,4.078C266.831,396.051,252.836,398.276,252.836,398.277L252.836,398.277z"/>
	<path fill-rule="evenodd" clip-rule="evenodd" fill="#FBD2C0" d="M88.418,274.265c0.177,0.532,0.306,0.935,0.436,1.342
		c4.563,14.28,90.473,0.582,103.457,16.164c2.256,2.582,10.817,33.687,20.363,59.292c3.945,10.583,7.003,23.059,13.052,26.349
		c10.12,11.405,34.474,11.974,42.635,11.755c6.327-0.17,3.165,9.139-5.96,9.139c-14.625,0-29.25,0-43.875,0
		c-9.182,0-13.608-7.771-11.328-15.383c-2.2-9.916-6.33-17.509-8.449-25.027c-15.05-53.406-25.493-51.572-26.35-51.254
		c-1.632-1.958-83.543,5.695-95.604,0.911c-23.836-9.455-10.114-20.857-7.773-25.662c-0.13-0.407-0.262-0.819-0.354-1.096
		L88.418,274.265z"/>
	<path fill-rule="evenodd" clip-rule="evenodd" fill="#E6C0AF" d="M208.519,393.4c-1.932-2.887-2.452-6.702-1.32-10.479
		c-2.2-9.916-6.33-17.509-8.449-25.027c-0.588-2.088-1.168-4.081-1.742-6.004l4.411-1.624c0,0,6.66,26.248,9.141,29.903
		c2.48,3.656,13.983,12.655,13.983,12.655S216.184,393.823,208.519,393.4z"/>
	<path fill-rule="evenodd" clip-rule="evenodd" fill="#404041" d="M88.418,274.265c0.177,0.532,0.306,0.935,0.436,1.342
		c4.563,14.28,93.346-0.984,106.33,14.598c2.156,2.587,9.133,33.57,19.674,58.155c-6.355,3.393-14.589,7.641-19.856,10.467
		c-9.938-23.475-21.951-50.318-22.799-51.337c-1.632-1.958-83.347,4.847-95.408,0.063c-23.836-9.455-10.114-20.857-7.773-25.662
		c-0.13-0.407-0.262-0.819-0.354-1.096L88.418,274.265z"/>
	<path fill-rule="evenodd" clip-rule="evenodd" fill="#3C3D3E" d="M201.732,355.268c-2.481,1.302-4.804,2.525-6.73,3.559
		c-9.938-23.475-21.951-50.318-22.799-51.337c-1.632-1.958-83.347,4.847-95.408,0.063c-19.164-7.603-14.051-16.462-10.093-22.14
		c0,0,9.552,14.389,21.042,16.217c11.49,1.828,77.565-0.784,84.094-1.045C176.378,300.402,194.466,338.584,201.732,355.268z"/>
	<path fill-rule="evenodd" clip-rule="evenodd" fill="#E2BBAA" d="M131.958,173.556c-6.063-12.411-21.076,0.119-17.346,10.285
		c3.017,8.219,16.147,49.698,31.568,50.056c17.266,0.402,22.521-2.447,59.63-4.974c0.842-0.013,1.256-0.858,1.354-2.03
		c0.953-0.161,1.915-0.443,2.867-0.883c7.163-3.305,7.573-4.438,10.315-8.226s8.357-4.179,8.619-5.746s-3.134-1.958-8.488-1.828
		c-5.354,0.13-11.361,2.351-14.625,4.831c-1.611,1.225-3.953,3.18-6.053,4.941c-26.261,1.271-40.199,4.412-47.358,0.811
		C142.411,215.747,145.6,201.485,131.958,173.556z"/>
	<path fill-rule="evenodd" clip-rule="evenodd" fill="#EF5B72" d="M131.435,173.033c4.57,7.966,5.326,25.859,5.587,38.395
		c0.261,12.536-3.656,15.932-13.058,19.588c-14.682,5.709-19.942,12.162-22.385,33.339c-1.566,13.579,2.215,15.997,0.909,17.041
		c-1.306,1.045-10.127,2.114-22.401,10.472c-12.274,8.357-17.498,6.79-20.893-1.567c-3.396-8.356,8.618-50.666,21.676-77.305
		c13.059-26.639,29.25-46.487,36.563-48.054S131.435,173.033,131.435,173.033z"/>
	<path fill-rule="evenodd" clip-rule="evenodd" fill="#E6556D" d="M136.068,220.574c-1.668,5.473-5.555,7.895-12.104,10.441
		c-14.682,5.709-19.942,12.162-22.385,33.339c-1.566,13.579,2.215,15.997,0.909,17.041c-1.306,1.045-10.127,2.114-22.401,10.472
		c-10.045,6.84-15.367,7.03-18.831,2.294c3.913-0.777,9.791-2.26,16.521-6.369c11.282-6.889,18.804-13.581,18.021-24.288
		c-0.784-10.708,1.828-19.848,7.834-25.854c6.007-6.008,16.976-6.529,22.982-11.229c2.101-1.645-19.223-37.732-15.333-43.792
		c3.677-5.729,20.817,27.077,20.817,27.077S134.97,214.217,136.068,220.574z"/>
	
		<ellipse transform="matrix(-0.2752 -0.9614 0.9614 -0.2752 42.7619 286.6262)" fill-rule="evenodd" clip-rule="evenodd" fill="#FBD2C0" cx="129.423" cy="127.194" rx="12.079" ry="9.829"/>
	<path fill-rule="evenodd" clip-rule="evenodd" fill="#F8A98E" d="M130.584,119.137c-6.356-2.804-9.459,6.15-6.042,12.337
		c1.546,2.801,4.072,5.175,5.868,5.554c1.797,0.38,4.168-0.102,4.301-2.543c0.134-2.442-2.092-2.778-2.984-4.861
		s-0.652-2.762,0.804-4.187c1.457-1.426,1.519-1.774,0.643-3.615C132.297,119.982,130.584,119.137,130.584,119.137z"/>
	<path fill-rule="evenodd" clip-rule="evenodd" fill="#404041" d="M39.286,398.304c3.519,0,6.39-2.87,6.39-6.39
		c0-3.521-2.871-6.39-6.39-6.39s-6.39,2.869-6.39,6.39C32.896,395.434,35.767,398.304,39.286,398.304z"/>
	<path fill-rule="evenodd" clip-rule="evenodd" fill="#404041" d="M138.608,398.304c3.52,0,6.39-2.87,6.39-6.39
		c0-3.521-2.87-6.39-6.39-6.39c-3.52,0-6.391,2.869-6.391,6.39C132.217,395.434,135.088,398.304,138.608,398.304z"/>
	<g>
		<polygon fill-rule="evenodd" clip-rule="evenodd" fill="#404041" points="82.603,371.056 88.421,371.056 94.239,371.056 
			90.915,386.104 88.421,386.104 85.927,386.104 		"/>
		<path fill-rule="evenodd" clip-rule="evenodd" fill="#404041" d="M88.673,398.304c3.52,0,6.39-2.87,6.39-6.39
			c0-3.521-2.87-6.39-6.39-6.39c-3.52,0-6.39,2.869-6.39,6.39C82.283,395.434,85.153,398.304,88.673,398.304z"/>
	</g>
	<rect x="84.568" y="327.49" fill-rule="evenodd" clip-rule="evenodd" fill="#898C8E" width="8.208" height="19.845"/>
	<rect x="82.418" y="342.189" fill-rule="evenodd" clip-rule="evenodd" fill="#929497" width="12.507" height="30.084"/>
	<rect x="82.418" y="342.189" fill-rule="evenodd" clip-rule="evenodd" fill="#808184" width="6.496" height="30.084"/>
	<path fill-rule="evenodd" clip-rule="evenodd" fill="#43525A" d="M146.503,315.098C132.605,343.705,60.42,336,39.427,313.009
		C17.489,288.981-0.794,216.377,0.25,199.662c1.044-16.714,12.598-17.459,21.999-9.102c11.207,9.961,9.086,96.452,47.992,112.521
		C102.066,316.228,156.734,294.038,146.503,315.098z"/>
	<path fill-rule="evenodd" clip-rule="evenodd" fill="#4A5963" d="M7.403,185.955c4.303-1.686,9.875,0.187,14.846,4.605
		c11.207,9.961,9.086,96.452,47.992,112.521c29.745,12.286,79.435-6.289,77.455,8.421C44,347.703,18.997,270.979,7.403,185.955z"/>
	<path fill-rule="evenodd" clip-rule="evenodd" fill="#58595B" d="M99.908,371.24l41.944,6.826c3.719,0.985,1.794,8.597-1.038,8.104
		c-0.522-0.091-51.914-4.746-51.914-4.746s-50.977,4.655-51.499,4.746c-2.833,0.492-4.758-7.119-1.039-8.104l41.558-6.826H99.908z"
		/>
	<path fill-rule="evenodd" clip-rule="evenodd" fill="#504F50" d="M99.908,371.24l41.944,6.826c0.937,0.248,1.515,0.917,1.811,1.771
		c-0.471,1.731-1.567,3.17-2.849,2.946c-0.522-0.091-51.914-4.746-51.914-4.746s-50.977,4.655-51.499,4.746
		c-1.283,0.224-2.379-1.216-2.85-2.947c0.296-0.854,0.875-1.521,1.811-1.77l41.558-6.826H99.908z"/>
	<path fill-rule="evenodd" clip-rule="evenodd" fill="#EF5B72" d="M236.315,380.385c-1.567-0.653-3.788,0.914-3.265,4.831
		s-7.965,4.701-12.013,5.093c-4.048,0.392-13.839-7.387-13.839-7.387s-1.7,5.298-1.961,8.692c-0.262,3.396,1.827,6.69,1.827,6.69
		s59.808,0.355,61.44,0c1.633-0.356,4.897-2.118,4.701-5.971c-0.196-3.853-1.306-4.896-6.072-4.57S236.315,380.385,236.315,380.385z
		"/>
	<path fill-rule="evenodd" clip-rule="evenodd" fill="#F8A770" d="M205.414,394.097c0.478,2.357,1.651,4.208,1.651,4.208
		s59.808,0.355,61.44,0c1.633-0.356,4.897-2.118,4.701-5.971c-0.008-0.146-0.016-0.288-0.027-0.427
		c-1.058,0.788-2.754,2.529-5.163,3.67c-3.722,1.763-8.096,1.175-25.333,0.914C229.483,396.291,212.838,394.79,205.414,394.097z"/>
	<path fill-rule="evenodd" clip-rule="evenodd" fill="#FBD2C0" d="M129.084,174.078c-6.063-12.411-21.076,0.119-17.346,10.284
		c3.017,8.22,16.147,49.698,31.568,50.058c17.267,0.401,23.846-0.972,60.955-3.498c2.808-0.041,0.864-9.332-1.738-9.125
		c-29.042,1.104-45.417,3.311-52.956-0.482C139.538,216.269,142.727,202.008,129.084,174.078z"/>
	<path fill-rule="evenodd" clip-rule="evenodd" fill="#FBC7B0" d="M114.04,173.308c-2.445,3.043-3.709,7.218-2.301,11.055
		c3.017,8.22,16.147,49.698,31.568,50.058c17.267,0.401,23.846-0.972,60.955-3.498c0.498-0.007,0.846-0.306,1.068-0.79
		c-0.883-0.186-1.791-0.52-2.687-0.987c-8.903-4.653-56.064,10.881-69.668-7.816C127.913,214.374,117.123,180.72,114.04,173.308z"/>
	<rect x="136.083" y="234.42" fill-rule="evenodd" clip-rule="evenodd" fill="#C96C38" width="398.011" height="9.401"/>
	<rect x="136.083" y="239.121" fill-rule="evenodd" clip-rule="evenodd" fill="#B46537" width="398.011" height="4.7"/>
	<path fill-rule="evenodd" clip-rule="evenodd" fill="#FBD2C0" d="M198.387,221.979c6.081-1.795,9.016-4.202,11.105-4.964
		c12.517-4.565,22.194-1.547,24.027,6.269c0.795,3.391-9.101,1.191-14.183,3.55c-5.082,2.359-8.504,6.196-13.693,4.892
		c-5.188-1.306-9.41-1.759-8.524-1.802C198.005,229.881,198.387,221.979,198.387,221.979z"/>
	<path fill-rule="evenodd" clip-rule="evenodd" fill="#FBC9B4" d="M630.436,172.898c4.357,20.593-17.699,38.446-0.059,29.575
		c5.201-2.615,17.877-12.712,15.018-15.438s-2.334-21.134-2.334-21.134L630.436,172.898z"/>
	<path fill-rule="evenodd" clip-rule="evenodd" fill="#FBD2C0" d="M612.266,86.45c-21.174-0.38-29.676,24.069-23.652,42.532
		c1.879,5.757-10.936,16.899-11.699,19.808c-1.119,4.271,1.572,6.542,8.781,7.486c1.016,13.468,14.836,28.696,37.916,25
		c13.908-2.228,36.217-27.77,33.088-56.678C653.57,95.691,633.439,86.829,612.266,86.45z"/>
	<path fill-rule="evenodd" clip-rule="evenodd" fill="#FBC7B0" d="M590.848,169.561c6.105,8.23,17.375,14.18,32.764,11.715
		c9.123-1.461,21.859-12.952,28.66-28.844l-10.061-3.465l-3.021,1.663C637.059,184.314,612.055,181.661,590.848,169.561z"/>
	<path fill-rule="evenodd" clip-rule="evenodd" fill="#A15641" d="M624.92,110.14c21.33,9.011,11.338,23.067,11.338,23.067
		c4.398,5.757,5.867,14.963,6.893,21.057c-0.568,2.22-1.275,4.601-1.752,5.792c-0.914,2.286-3.199,5.028-2.023,4.506
		s4.57-2.938,4.57-2.612s-3.525,10.12-2.742,9.271s2.219-1.306,3.982-3.656s2.025-2.611,2.025-2.611l-1.83,6.203
		c14.307-8.47,23.271-54.547,13.396-70.296c6.068-23.792-73.951-30.97-80.451-0.496c-1.941,9.105,1.789,17.912,1.342,16.121
		s0.041-4.915,2.688-10.448c-0.486,7.967,5.223,12.238,12.092,14.031c-0.758-1.396-5.076-11.942-5.076-11.942
		c5.893,6.998,9.914,9.893,21.494,11.345c-1.254-1.488-5.225-9.404-5.225-9.404c5.979,6.923,19.254,11.813,18.883,11.046
		C622.51,116.937,624.129,111.549,624.92,110.14z"/>
	<g>
		<path fill="#9B533F" d="M644.861,136.384c0,0,0.117-0.543,0.311-1.433c0.109-0.469,0.238-1.027,0.383-1.654
			c0.135-0.645,0.164-1.404,0.271-2.219c0.051-0.414,0.1-0.841,0.152-1.278c-0.004-0.456-0.008-0.922-0.01-1.396
			c0-0.487,0.002-0.983,0.002-1.484c0.012-0.509-0.104-1.031-0.148-1.565c-0.059-0.541-0.115-1.087-0.176-1.637
			c-0.076-0.555-0.234-1.111-0.346-1.684c-0.129-0.568-0.227-1.153-0.377-1.736c-0.18-0.58-0.363-1.163-0.547-1.754
			c-0.311-1.209-0.82-2.294-1.227-3.386l-0.309-0.809l-0.379-0.793c-0.244-0.517-0.486-1.03-0.729-1.54
			c-0.936-1.986-1.773-3.81-2.559-5.251c-0.793-1.443-1.545-2.561-2.17-3.222c-0.283-0.372-0.615-0.563-0.787-0.74
			c-0.184-0.161-0.285-0.25-0.285-0.25s0.117,0.063,0.334,0.178c0.207,0.137,0.564,0.248,0.928,0.563
			c0.803,0.564,1.779,1.565,2.82,2.928c1.039,1.376,2.094,3.077,3.217,5.017c0.279,0.49,0.561,0.984,0.844,1.481l0.426,0.771
			l0.379,0.848c0.492,1.147,1.07,2.324,1.402,3.601c0.188,0.631,0.373,1.253,0.559,1.872c0.146,0.626,0.23,1.259,0.34,1.871
			c0.092,0.617,0.225,1.216,0.268,1.814c0.02,0.591,0.039,1.178,0.059,1.761c-0.002,0.572,0.064,1.129,0,1.669
			c-0.061,0.529-0.117,1.052-0.176,1.567c-0.061,0.493-0.119,0.978-0.176,1.452c-0.117,0.446-0.232,0.883-0.344,1.307
			c-0.238,0.825-0.396,1.581-0.648,2.21c-0.264,0.603-0.5,1.14-0.695,1.59C645.09,135.879,644.861,136.384,644.861,136.384z"/>
	</g>
	<g>
		<path fill="#9B533F" d="M656.137,123.228c0,0,0.035-0.503,0.09-1.319c0.08-0.843,0.123-2.069,0.148-3.565
			c0.023-2.994-0.266-7.098-1.535-11.374c-1.285-4.273-3.295-7.86-4.969-10.343c-0.84-1.231-1.551-2.224-2.092-2.889
			c-0.498-0.649-0.805-1.05-0.805-1.05s0.393,0.318,1.029,0.833c0.664,0.525,1.58,1.369,2.648,2.483
			c1.045,1.127,2.244,2.54,3.324,4.294c1.08,1.749,2.086,3.809,2.779,6.1c1.369,4.616,1.145,9.028,0.615,12.037
			c-0.277,1.514-0.572,2.717-0.838,3.531C656.289,122.746,656.137,123.228,656.137,123.228z"/>
	</g>
	<g>
		<path fill="#9B533F" d="M620.191,114.771c0,0-0.902-0.867-2.27-2.338c-1.348-1.479-3.217-3.592-4.58-6.48
			c-0.658-1.452-1.068-2.971-1.166-4.4c-0.027-1.443,0.223-2.75,0.727-3.707l0.156-0.355l0.213-0.315
			c0.137-0.192,0.268-0.378,0.395-0.557c0.227-0.359,0.498-0.564,0.703-0.761c0.4-0.358,0.654-0.586,0.654-0.586
			s-0.158,0.303-0.406,0.777c-0.129,0.249-0.33,0.545-0.422,0.917c-0.063,0.182-0.125,0.371-0.191,0.566L613.9,97.83l-0.055,0.342
			c-0.217,0.91-0.178,2.009,0.006,3.185c0.26,1.183,0.713,2.446,1.309,3.761c1.229,2.616,2.633,4.969,3.576,6.733
			C619.695,113.611,620.191,114.771,620.191,114.771z"/>
	</g>
	<g>
		<path fill="#9B533F" d="M604.688,115.24c0,0-0.369-0.098-0.977-0.437c-0.605-0.338-1.426-0.919-2.352-1.732
			c-1.838-1.633-4.146-4.18-5.951-7.521c-0.896-1.669-1.563-3.391-1.869-5.071c-0.301-1.656-0.203-3.395,0.633-4.565
			c0.17-0.301,0.451-0.51,0.658-0.727c0.262-0.164,0.484-0.348,0.729-0.443c0.244-0.093,0.459-0.196,0.672-0.248
			c0.211-0.041,0.406-0.079,0.584-0.114c0.342-0.058,0.605-0.033,0.785-0.048c0.176-0.003,0.273-0.005,0.273-0.005
			s-0.092,0.032-0.258,0.09c-0.164,0.067-0.432,0.123-0.73,0.268c-0.574,0.257-1.471,0.751-1.846,1.723
			c-0.414,0.942-0.287,2.269,0.143,3.682c0.438,1.42,1.146,2.948,1.99,4.514c1.689,3.132,3.508,5.875,4.922,7.785
			c0.713,0.951,1.334,1.691,1.807,2.163C604.371,115.026,604.688,115.24,604.688,115.24z"/>
	</g>
	<g>
		<path fill="#9B533F" d="M607.506,106.313c0,0-0.232-0.218-0.594-0.557c-0.387-0.36-0.896-0.928-1.463-1.691
			c-1.119-1.51-2.441-3.927-2.695-6.959c-0.104-1.508,0.127-2.981,0.588-4.222c0.127-0.292,0.256-0.587,0.385-0.887
			c0.143-0.278,0.32-0.53,0.473-0.778c0.285-0.509,0.693-0.886,1.008-1.252c0.717-0.687,1.354-1.145,1.814-1.365
			c0.439-0.231,0.719-0.379,0.719-0.379s-0.203,0.243-0.521,0.622c-0.369,0.384-0.781,0.995-1.217,1.73
			c-0.412,0.773-0.832,1.703-1.045,2.795c-0.215,1.088-0.295,2.3-0.209,3.59c0.211,2.582,0.932,4.938,1.578,6.622
			c0.322,0.842,0.613,1.531,0.842,1.993C607.373,106.024,607.506,106.313,607.506,106.313z"/>
	</g>
	<g>
		<path fill="#9B533F" d="M637.342,112.891c0,0-0.367-0.07-0.949-0.181c-0.324-0.04-0.664-0.215-1.088-0.38
			c-0.438-0.151-0.865-0.431-1.355-0.732c-1.959-1.218-4.072-3.677-5.625-6.732c-1.533-3.076-2.256-6.122-2.479-8.345
			c-0.125-1.104-0.125-2.035-0.094-2.643c0.049-0.586,0.078-0.957,0.078-0.957s0.09,0.362,0.232,0.933
			c0.16,0.604,0.398,1.428,0.76,2.451c0.695,2.042,1.848,4.771,3.287,7.661c1.465,2.868,2.984,5.372,4.473,6.858
			c0.373,0.367,0.701,0.729,1.047,0.963c0.336,0.249,0.611,0.516,0.883,0.635C637.021,112.708,637.342,112.891,637.342,112.891z"/>
	</g>
	<g>
		<path fill="#9B533F" d="M652.379,157.998c0,0,0.846-1.951,1.918-4.423c1.023-2.778,2.229-6.619,2.842-11.016
			c0.547-4.404,0.563-8.469,0.541-11.431c-0.016-1.489-0.104-2.705-0.109-3.543c-0.016-0.807-0.023-1.304-0.023-1.304
			s0.127,0.481,0.332,1.262c0.193,0.817,0.527,1.982,0.793,3.461c0.527,2.967,1.025,7.175,0.449,11.823
			c-0.648,4.653-2.422,8.575-3.926,11.187c-0.777,1.3-1.557,2.256-2.035,2.942C652.676,157.601,652.379,157.998,652.379,157.998z"/>
	</g>
	<g>
		<path fill="#9B533F" d="M640.867,100.204c0,0-0.699-0.981-1.857-2.476c-1.15-1.501-2.789-3.495-4.666-5.571
			c-0.955-1.024-1.881-1.969-2.771-2.783c-0.908-0.779-1.752-1.481-2.539-1.946c-0.191-0.121-0.377-0.239-0.559-0.354
			c-0.178-0.09-0.35-0.177-0.514-0.261c-0.32-0.174-0.615-0.322-0.877-0.401c-0.479-0.185-0.783-0.303-0.783-0.303
			s0.328-0.001,0.84-0.004c0.27-0.014,0.598,0.027,0.99,0.1c0.205,0.036,0.418,0.073,0.637,0.112
			c0.217,0.057,0.439,0.129,0.68,0.203c0.967,0.273,2.035,0.814,3.152,1.518c1.092,0.732,2.195,1.671,3.219,2.771
			c2.018,2.232,3.314,4.628,4.057,6.42C640.627,99.022,640.867,100.204,640.867,100.204z"/>
	</g>
	<g>
		<path fill="#9B533F" d="M585.188,108.427c0,0-0.199-0.236-0.512-0.604c-0.18-0.195-0.34-0.466-0.512-0.794
			c-0.092-0.171-0.186-0.349-0.283-0.531c-0.074-0.205-0.148-0.416-0.227-0.631c-0.334-0.893-0.486-2.023-0.492-3.276
			c0.018-1.251,0.258-2.611,0.699-3.97c0.465-1.353,1.117-2.556,1.803-3.576c0.725-1,1.457-1.835,2.178-2.428
			c0.344-0.308,0.68-0.565,1-0.764c0.311-0.208,0.568-0.379,0.801-0.477c0.434-0.203,0.713-0.334,0.713-0.334
			s-0.205,0.229-0.527,0.585c-0.182,0.177-0.361,0.427-0.568,0.701c-0.215,0.263-0.438,0.581-0.67,0.952
			c-0.488,0.708-0.965,1.621-1.471,2.618c-0.471,1.023-0.947,2.151-1.363,3.364c-0.814,2.425-1.238,4.715-1.121,6.409
			c0.01,0.207,0.02,0.411,0.029,0.61c0.033,0.184,0.064,0.361,0.096,0.533c0.053,0.341,0.104,0.64,0.195,0.865
			C585.096,108.135,585.188,108.427,585.188,108.427z"/>
	</g>
	<g>
		<path fill="#9B533F" d="M650.969,142.728c0,0-0.018-1.366,0.074-3.539c0.086-2.173,0.264-5.14,0.307-8.352
			c0.004-1.606-0.051-3.121-0.168-4.498c-0.166-1.362-0.34-2.607-0.645-3.614c-0.113-0.524-0.285-0.956-0.422-1.357
			c-0.121-0.403-0.268-0.751-0.406-1.025c-0.234-0.534-0.385-0.873-0.385-0.873s0.25,0.272,0.646,0.701
			c0.213,0.222,0.453,0.506,0.695,0.885c0.252,0.368,0.561,0.794,0.799,1.298c0.564,0.982,1.01,2.26,1.381,3.708
			c0.32,1.455,0.51,3.089,0.504,4.791c-0.047,3.408-0.738,6.387-1.318,8.491C651.443,141.451,650.969,142.728,650.969,142.728z"/>
	</g>
	<path fill-rule="evenodd" clip-rule="evenodd" fill="#9A523E" d="M624.92,110.14c1.373,0.579,2.611,1.181,3.734,1.796
		c-0.389-0.773-0.752-1.414-1.066-1.843c-1.957-2.677-3.199-3.982-3.199-3.982s-2.416,1.502-3.459,5.158
		c-1.045,3.656-0.98,6.007-0.98,5.68c0-0.326-5.092-2.089-12.014-7.704c-6.92-5.615-9.271-9.01-9.205-8.683
		c0.064,0.326-1.766,5.223,0.912,9.859s4.635,6.071,3.723,5.419c-0.914-0.652-9.012-5.681-12.406-9.075
		c-3.395-3.396-5.484-6.595-5.484-6.595s-0.262,4.31,0.457,7.378s0.457,4.047,0.457,3.591c0-0.457-3.721-5.615-3.918-9.336
		c-0.195-3.722-0.129-5.158-0.129-5.158s-2.484,8.487-2.941,11.948c-0.305,2.304-0.068,5.126,0.123,6.757
		c-0.049-1.892,0.674-4.801,2.832-9.311c-0.486,7.967,5.223,12.238,12.092,14.031c-0.758-1.396-5.076-11.942-5.076-11.942
		c5.893,6.998,9.914,9.893,21.494,11.345c-1.254-1.488-5.225-9.404-5.225-9.404c5.979,6.923,19.254,11.813,18.883,11.046
		C622.51,116.937,624.129,111.549,624.92,110.14L624.92,110.14z M637.529,120.533c2.992,6.673-1.271,12.674-1.271,12.674
		c4.398,5.757,5.867,14.963,6.893,21.057c-0.568,2.22-1.275,4.601-1.752,5.792c-0.914,2.286-3.199,5.028-2.023,4.506
		s4.57-2.938,4.57-2.612s-3.525,10.12-2.742,9.271s2.219-1.306,3.982-3.656s2.025-2.611,2.025-2.611l-1.83,6.203
		c0,0,3.168-5.499,3.756-8.764c0.588-3.266,0.369-4.299,0.369-4.299l-4.529,7.071c0,0,0.961-4.666,1.156-8.388
		s1.434-3.396,6.266-10.316c4.832-6.92,8.111-14.687,4.447-20.271s-13.604-8.747-16.525-7.348
		C639.436,119.267,638.461,119.881,637.529,120.533L637.529,120.533z M645.381,171.156l7.221-7.994
		C650.428,166.804,647.994,169.609,645.381,171.156L645.381,171.156z M579.705,116.68l-0.018-0.111
		C579.699,116.619,579.705,116.655,579.705,116.68z"/>
	<path fill-rule="evenodd" clip-rule="evenodd" fill="#A15641" d="M642.563,122.268c-4.029,2.002-6.287,1.949-8.656,10.371
		c-2.369,8.421-2.836,14.429-2.836,14.429l-3.004,7.536c0,0-2.725-8.096-1.537-12.494c1.691-6.265,4.426-10.794,3.943-16.834
		c-0.82-10.287-7.91-15.822-7.91-15.822l7.041,0.295L642.563,122.268z"/>
	<path fill-rule="evenodd" clip-rule="evenodd" fill="#58574B" d="M434.777,390.621l-0.805,7.684h-18.863h-50.221l0.008-2.26
		c0.154-3.105-0.412-8.171,8.229-10.884l41.352-11.503c0,0,7.406,7.752,16.025,11.147S434.777,390.621,434.777,390.621z"/>
	<path fill-rule="evenodd" clip-rule="evenodd" fill="#283B48" d="M589.369,309.632c-13.98,0.656-67.777-5.202-87.754-3.139
		c-1.631,11.995,7.174,49.377,10.039,78.621c0.334,3.415,1.326,6.846-0.701,9.35c-9.305-5.442-19.955-8.851-31.951-16.102
		c4.127-18.672-8.459-79.838,0.033-90.822c12.291-15.899,89.99-10.426,103.529-11.063L589.369,309.632z"/>
	<path fill-rule="evenodd" clip-rule="evenodd" fill="#33414E" d="M593.365,309.483c-13.98,0.656-77.205,1.223-97.182,3.286
		c-10.273,10.628-48.908,71.646-61.588,79.974c-2.447-1.431-5.092-2.99-7.516-4.448c-3.568-2.146-12.578-7.59-20.838-12.582
		c16.139-17.628,68.791-83.544,81.725-90.354c17.785-9.362,85.057-8.394,98.594-9.029L593.365,309.483z"/>
	<path fill-rule="evenodd" clip-rule="evenodd" fill="#2F3D4A" d="M593.365,309.483c-13.98,0.656-77.205,1.223-97.182,3.286
		c-10.273,10.628-48.908,71.646-61.588,79.974c-2.447-1.431-5.092-2.99-7.516-4.448l-4.721-2.846l69.6-81.195
		c0,0,52.232-6.269,72.863-6.791c20.633-0.522,25.141-4.557,25.141-4.557L593.365,309.483z"/>
	<path fill-rule="evenodd" clip-rule="evenodd" fill="#FBD2C0" d="M615.693,220.428c-18.313,2.035-37.291,2.302-53.125-0.79
		c-11.963-2.336-22.311-6.628-29.643-13.539c-7.943-7.485-12.174-17.557-11.014-30.839c0.652-7.481,3.094-16.008,7.672-25.696
		l9.857,6.595c-12.123,25.66-3.156,41.337,26.326,47.092c14.047,2.744,31.285,2.462,48.098,0.594L615.693,220.428z"/>
	<path fill-rule="evenodd" clip-rule="evenodd" fill="#FBC7B0" d="M585.389,221.914c-8.01-0.181-15.73-0.892-22.82-2.276
		c-11.963-2.336-22.311-6.628-29.643-13.539c-7.943-7.485-12.174-17.557-11.014-30.839c0.523-6.003,2.199-12.68,5.207-20.09
		l3.775,2.965c0,0-4.66,11.426-3.094,24.354c3.436,28.33,36.174,31.502,58.633,34.083L585.389,221.914z"/>
	<path fill-rule="evenodd" clip-rule="evenodd" fill="#404041" d="M644.547,216.729c0.01-1.412-2.963-12.478-8.783-15.671
		c-5.82-3.192-23.627-0.39-35.881,1.407c-12.256,1.796-19.701-0.401-19.932,1.523c-0.229,1.927-0.5,29.694-0.5,29.694
		s26.598,0.721,42.803-2.762C638.457,227.439,644.547,216.729,644.547,216.729z"/>
	<path fill-rule="evenodd" clip-rule="evenodd" fill="#393A3E" d="M579.588,221.686c-0.082,6.366-0.137,11.998-0.137,11.998
		s22.25,0.603,38.447-1.959l-1.232-10.371C615.693,220.428,579.602,221.685,579.588,221.686z"/>
	<path fill-rule="evenodd" clip-rule="evenodd" fill="#FFCA05" d="M625.387,189.656c-31.965,22.472-14.113,36.874-40.527,70.438
		c-8.453,10.741-15.191,14.635-15,16.296c0.189,1.661,8.049,3.795,10.873,18.373s7.635,17.145,15.932,13.605
		s38.211-13.391,46.908-65.959c8.695-52.568,9.637-51.511,5.549-57.773C645.035,178.373,625.387,189.656,625.387,189.656z"/>
	<path fill-rule="evenodd" clip-rule="evenodd" fill="#F3BA19" d="M571.111,275.423c-0.828,0.45-1.285,0.145-1.16,1.236
		s7.957,3.525,10.781,18.104s7.635,17.145,15.932,13.605s38.211-13.391,46.908-65.959c7.027-42.487,8.99-49.943,7.326-54.548
		c-4.832,5.917-10.607,13.368-10.607,13.368s-5.121,23.365-10.295,42.673c-2.27-2.401-5.215-5.477-5.76-5.843
		c-0.912-0.611-5.439,4.134-12.145,9.663c-4.551,3.752-15.85,5.417-22.645,6.101c-1.363,2.017-2.883,4.103-4.588,6.271
		c-1.316,1.672-2.59,3.178-3.803,4.534c11.5,3.341,25.291,3.686,38.479-14.163l7.221,4.871c-1.336,4.402-2.6,8.098-3.691,10.541
		c-6.008,13.45-19.264,24.841-26.119,26.247C595.471,292.427,586.561,276.33,571.111,275.423z"/>
	<path fill-rule="evenodd" clip-rule="evenodd" fill="#404041" d="M634.391,398.304c3.52,0,6.389-2.87,6.389-6.39
		c0-3.521-2.869-6.39-6.389-6.39s-6.391,2.869-6.391,6.39C628,395.434,630.871,398.304,634.391,398.304z"/>
	<path fill-rule="evenodd" clip-rule="evenodd" fill="#404041" d="M535.07,398.304c3.52,0,6.389-2.87,6.389-6.39
		c0-3.521-2.869-6.39-6.389-6.39c-3.521,0-6.391,2.869-6.391,6.39C528.68,395.434,531.549,398.304,535.07,398.304z"/>
	<g>
		<polygon fill-rule="evenodd" clip-rule="evenodd" fill="#404041" points="591.074,371.056 585.254,371.056 579.436,371.056 
			582.76,386.104 585.254,386.104 587.748,386.104 		"/>
		<path fill-rule="evenodd" clip-rule="evenodd" fill="#404041" d="M585.004,398.304c3.52,0,6.391-2.87,6.391-6.39
			c0-3.521-2.871-6.39-6.391-6.39s-6.391,2.869-6.391,6.39C578.613,395.434,581.484,398.304,585.004,398.304z"/>
	</g>
	<rect x="580.9" y="327.49" fill-rule="evenodd" clip-rule="evenodd" fill="#898C8E" width="8.207" height="19.845"/>
	<rect x="578.75" y="342.189" fill-rule="evenodd" clip-rule="evenodd" fill="#929497" width="12.508" height="30.084"/>
	<rect x="578.75" y="342.189" fill-rule="evenodd" clip-rule="evenodd" fill="#808184" width="6.254" height="30.084"/>
	<path fill-rule="evenodd" clip-rule="evenodd" fill="#43525A" d="M527.174,315.098c13.896,28.607,86.082,20.902,107.074-2.089
		c21.939-24.027,40.223-96.632,39.178-113.347c-1.043-16.714-12.598-17.459-21.998-9.102c-11.207,9.961-9.086,96.452-47.992,112.521
		C571.609,316.228,516.941,294.038,527.174,315.098z"/>
	<path fill-rule="evenodd" clip-rule="evenodd" fill="#4A5963" d="M666.273,185.955c-4.303-1.686-9.875,0.187-14.846,4.605
		c-11.207,9.961-9.086,96.452-47.992,112.521c-29.744,12.286-79.436-6.289-77.455,8.421
		C629.676,347.703,654.68,270.979,666.273,185.955z"/>
	<path fill-rule="evenodd" clip-rule="evenodd" fill="#58595B" d="M573.768,371.24l-41.943,6.826
		c-3.719,0.985-1.795,8.597,1.039,8.104c0.521-0.091,51.912-4.746,51.912-4.746s50.979,4.655,51.5,4.746
		c2.832,0.492,4.758-7.119,1.039-8.104l-41.559-6.826H573.768z"/>
	<path fill-rule="evenodd" clip-rule="evenodd" fill="#FBD2C0" d="M646.666,201.305c-43.945,83.625-53.768,75.048-121.016,28.587
		l3.354-12.597c57.684,41.426,68.252,45.109,98.564-24.314C633.717,182.593,651.43,189.895,646.666,201.305z"/>
	<path fill-rule="evenodd" clip-rule="evenodd" fill="#FBC9B4" d="M630.107,230.919c-31.215,50.896-46.537,38.99-104.457-1.027
		l0.24-0.907c2,0.012,2.766-0.705,2.766-0.705c17.707,11.502,48.809,36.77,69.338,29.119c14.893-5.55,27.258-22.35,29.412-26.69
		c0.463-0.934,0.684-1.479,0.684-1.479S628.918,229.886,630.107,230.919z"/>
	<path fill-rule="evenodd" clip-rule="evenodd" fill="#404041" d="M590.137,131.32c0.326,6.6-0.678,19.684-2.695,20.081
		c-2.373,0.47-2.633-22.421-2.549-25.858l4.773-0.154l50.904,1.239l-2.646,3.046c0,0-37.564-1.607-41.744-0.301
		C592.002,130.679,590.137,131.32,590.137,131.32z"/>
	<path fill-rule="evenodd" clip-rule="evenodd" fill="#D4EEF5" d="M587.861,127.145c1.113,0.289,0.535,23.105-0.98,23.508
		c-2.412,0.641-3.492-22.628-1.881-23.925L587.861,127.145z"/>
	
		<ellipse transform="matrix(0.3401 -0.9404 0.9404 0.3401 297.4453 694.7473)" fill-rule="evenodd" clip-rule="evenodd" fill="#FBD2C0" cx="643.767" cy="135.428" rx="13.807" ry="11.235"/>
	<path fill-rule="evenodd" clip-rule="evenodd" fill="#F8A98E" d="M642.719,125.407c7.469-2.7,10.309,7.752,5.93,14.541
		c-1.982,3.074-5.049,5.584-7.127,5.877c-2.078,0.292-4.744-0.44-4.705-3.236c0.037-2.795,2.602-3.005,3.781-5.311
		c1.182-2.306,0.959-3.099-0.59-4.838s-1.594-2.142-0.451-4.172S642.719,125.407,642.719,125.407z"/>
	<path fill-rule="evenodd" clip-rule="evenodd" fill="#FBD2C0" d="M534.209,221.02c-1.924-0.567-3.725-2.925-5.205-3.725
		c-4.436-2.393-6.963-3.736-8.941-4.457c-15.811-5.767-28.037-1.955-30.354,7.919c-1.004,4.284,11.498,1.504,17.918,4.484
		c6.42,2.979,10.744,7.828,17.299,6.179c6.553-1.647,9.168,4.49,9.168,3S534.209,221.02,534.209,221.02z"/>
	<path fill-rule="evenodd" clip-rule="evenodd" fill="#404041" d="M630.703,186.93c-5.863,3.114-13.291,19.538-18.514,30.769
		c-5.225,11.229-9.572,17.391-8.09,18.64c1.484,1.249,22.975,15.572,22.975,15.572s15.199-21.841,21.18-37.298
		C655.158,196.771,651.951,175.647,630.703,186.93z"/>
	<path fill-rule="evenodd" clip-rule="evenodd" fill="#39383A" d="M619.342,246.738c4.254,2.854,7.732,5.172,7.732,5.172
		s15.199-21.841,21.18-37.298c5.129-13.251,4.676-28.309-4.6-30.559c-0.74,4.609-3.516,20.753-8.055,34.035
		C630.246,233.759,619.342,246.738,619.342,246.738z"/>
	<path fill-rule="evenodd" clip-rule="evenodd" fill="#6D6E70" d="M562.254,142.222c-0.461,0.492-0.912,0.985-1.357,1.482
		c-12.377-12.473-25.111,8.882-13.154,20.871c0.258,0.257,0.555,0.468,0.865,0.638l-0.014,0.053l-0.012,0.053l-0.002,0.005
		l-0.012,0.048l-0.014,0.053l-0.002,0.009l-0.01,0.044l-0.012,0.054l-0.004,0.011l-0.01,0.042l-0.012,0.052l-0.006,0.017
		l-0.008,0.037l-0.012,0.052l-0.006,0.019l-0.006,0.034l-0.025,0.104l-0.01,0.053l-0.008,0.027l-0.004,0.025l-0.066,0.299
		l-0.002,0.014c-0.16,0.746-0.285,1.478-0.379,2.194l15.234,14.905c7.852-1.191,17.463-6.459,25.967-14.855l-14.34-14.029
		L562.254,142.222L562.254,142.222z M558.775,146.197L558.775,146.197c-4.221,5.207-6.725,9.056-8.543,14.099
		C541.59,152.006,550.482,138.245,558.775,146.197z"/>
	<path fill-rule="evenodd" clip-rule="evenodd" fill="#797B7D" d="M555.592,175.963l7.617,7.452
		c7.852-1.191,17.463-6.459,25.967-14.855l-14.34-14.029L555.592,175.963z"/>
	<path fill-rule="evenodd" clip-rule="evenodd" fill="#FBD2C0" d="M546.766,133.462c3.135,2.872,8.033,7.996,8.357,12.535
		c0.324,4.54-4.439,10.708-8.879,13.581s-8.229,1.698-14.234-0.914C513.65,150.682,538.703,128.147,546.766,133.462z"/>
	<polygon fill-rule="evenodd" clip-rule="evenodd" fill="#985544" points="326.209,398.305 326.209,243.821 260.389,243.821 
		213.481,243.821 189.356,243.821 189.356,247.941 213.346,247.941 260.515,247.941 321.629,247.941 321.629,398.305 	"/>
	<polygon fill-rule="evenodd" clip-rule="evenodd" fill="#985544" points="343.969,243.821 343.969,398.305 349.313,398.305 
		349.313,247.941 480.82,247.941 480.82,243.821 	"/>
	<g>
		<rect x="397.652" y="231.937" fill-rule="evenodd" clip-rule="evenodd" fill="#58595B" width="17.982" height="2.483"/>
		<g>
			<path fill-rule="evenodd" clip-rule="evenodd" fill="#6D6E70" d="M406.979,171.912l-0.072,39.126l7.74,0.014l0.07-39.124
				L406.979,171.912L406.979,171.912z M409.459,209.357L409.459,209.357v0.371l-2.4-0.004v-0.372L409.459,209.357L409.459,209.357z
				 M409.527,173.482L409.527,173.482l-0.002,0.371l-2.402-0.005l0.004-0.37L409.527,173.482L409.527,173.482z M408.367,174.376
				L408.367,174.376l-0.002,0.373l-1.244-0.003l0.002-0.372L408.367,174.376L408.367,174.376z M408.365,175.273L408.365,175.273
				v0.371l-1.244-0.001v-0.373L408.365,175.273L408.365,175.273z M408.363,176.171L408.363,176.171l-0.002,0.372l-1.242-0.003
				l0.002-0.371L408.363,176.171L408.363,176.171z M408.361,177.068L408.361,177.068v0.371l-1.244-0.003l0.002-0.371
				L408.361,177.068L408.361,177.068z M409.518,177.966L409.518,177.966l-0.002,0.373l-2.4-0.005l0.002-0.373L409.518,177.966
				L409.518,177.966z M408.359,178.86L408.359,178.86l-0.002,0.373l-1.242-0.003v-0.373L408.359,178.86L408.359,178.86z
				 M408.357,179.758L408.357,179.758l-0.002,0.372l-1.242-0.002v-0.373L408.357,179.758L408.357,179.758z M408.354,180.656
				L408.354,180.656l0.002,0.371l-1.244-0.003v-0.37L408.354,180.656L408.354,180.656z M408.354,181.552L408.354,181.552
				l-0.002,0.372l-1.242-0.003v-0.372L408.354,181.552L408.354,181.552z M409.51,182.45L409.51,182.45l-0.002,0.373l-2.4-0.005
				l0.002-0.373L409.51,182.45L409.51,182.45z M408.35,183.345L408.35,183.345v0.373l-1.244-0.002l0.002-0.374L408.35,183.345
				L408.35,183.345z M408.348,184.242L408.348,184.242v0.371l-1.244-0.001l0.002-0.373L408.348,184.242L408.348,184.242z
				 M408.348,185.139L408.348,185.139l-0.002,0.373l-1.244-0.003l0.002-0.372L408.348,185.139L408.348,185.139z M408.346,186.036
				L408.346,186.036v0.371l-1.244-0.002v-0.372L408.346,186.036L408.346,186.036z M409.5,186.936L409.5,186.936v0.372l-2.4-0.006
				v-0.372L409.5,186.936L409.5,186.936z M408.342,187.83L408.342,187.83v0.371l-1.244-0.002l0.002-0.371L408.342,187.83
				L408.342,187.83z M408.34,188.727L408.34,188.727v0.372l-1.244-0.003l0.002-0.371L408.34,188.727L408.34,188.727z
				 M408.338,189.624L408.338,189.624v0.372l-1.244-0.004l0.002-0.371L408.338,189.624L408.338,189.624z M408.336,190.521
				L408.336,190.521v0.372l-1.242-0.003l0.002-0.371L408.336,190.521L408.336,190.521z M409.492,191.419L409.492,191.419v0.372
				l-2.402-0.004l0.002-0.372L409.492,191.419L409.492,191.419z M408.334,192.314L408.334,192.314v0.371l-1.246-0.003l0.002-0.371
				L408.334,192.314L408.334,192.314z M408.332,193.212L408.332,193.212l-0.002,0.371l-1.242-0.003v-0.372L408.332,193.212
				L408.332,193.212z M408.33,194.108L408.33,194.108v0.372l-1.244-0.003l0.002-0.372L408.33,194.108L408.33,194.108z
				 M408.328,195.005L408.328,195.005v0.372l-1.244-0.003l0.002-0.372L408.328,195.005L408.328,195.005z M409.484,195.903
				L409.484,195.903l-0.002,0.372l-2.4-0.005l0.002-0.371L409.484,195.903L409.484,195.903z M408.324,196.799L408.324,196.799v0.372
				l-1.244-0.003l0.002-0.372L408.324,196.799L408.324,196.799z M408.322,197.695L408.322,197.695v0.372l-1.242-0.003v-0.372
				L408.322,197.695L408.322,197.695z M408.322,198.592L408.322,198.592v0.372l-1.244-0.003v-0.371L408.322,198.592L408.322,198.592
				z M408.32,199.49L408.32,199.49v0.371l-1.244-0.003v-0.371L408.32,199.49L408.32,199.49z M409.477,200.389L409.477,200.389v0.371
				l-2.4-0.005v-0.371L409.477,200.389L409.477,200.389z M408.316,201.283L408.316,201.283v0.371l-1.242-0.002v-0.371
				L408.316,201.283L408.316,201.283z M408.314,202.18L408.314,202.18l0.002,0.372l-1.244-0.003v-0.372L408.314,202.18
				L408.314,202.18z M408.314,203.077L408.314,203.077v0.371l-1.244-0.003v-0.37L408.314,203.077L408.314,203.077z M408.313,203.973
				L408.313,203.973v0.372l-1.244-0.002l0.002-0.371L408.313,203.973L408.313,203.973z M409.469,204.873L409.469,204.873v0.371
				l-2.402-0.005v-0.371L409.469,204.873L409.469,204.873z M408.309,205.767L408.309,205.767v0.372l-1.244-0.003v-0.371
				L408.309,205.767L408.309,205.767z M408.307,206.664L408.307,206.664v0.372l-1.244-0.003v-0.371L408.307,206.664L408.307,206.664
				z M408.307,207.561L408.307,207.561l-0.002,0.372l-1.242-0.003v-0.371L408.307,207.561L408.307,207.561z M408.303,208.458
				L408.303,208.458v0.371l-1.242-0.003v-0.371L408.303,208.458z"/>
			<polygon fill-rule="evenodd" clip-rule="evenodd" fill="#929497" points="412.523,211.049 414.646,211.052 414.717,171.928 
				412.523,171.923 			"/>
		</g>
		<g>
			<path fill-rule="evenodd" clip-rule="evenodd" fill="#BBBDBF" d="M405.076,188.987l-1.844,0.174l-0.416-4.432
				c-0.013-0.134,0.022-0.266,0.1-0.367l0.313-0.178l0.928-0.083c0.254-0.023,0.48,0.183,0.505,0.457L405.076,188.987z"/>
			<path fill-rule="evenodd" clip-rule="evenodd" fill="#58595B" d="M406.779,191.276l-4.791,0.443l-0.373-3.933
				c-0.018-0.173,0.03-0.344,0.132-0.476c0.099-0.132,0.245-0.215,0.406-0.231l3.597-0.337c0.16-0.014,0.316,0.039,0.441,0.152
				c0.123,0.111,0.203,0.272,0.219,0.443L406.779,191.276z"/>
			<path fill-rule="evenodd" clip-rule="evenodd" fill="#404041" d="M403.745,186.932l2.005-0.188
				c0.16-0.014,0.316,0.039,0.441,0.152c0.123,0.11,0.203,0.272,0.219,0.443l0.359,3.818l-2.691-0.656L403.745,186.932
				L403.745,186.932z"/>
			<polygon fill-rule="evenodd" clip-rule="evenodd" fill="#58595B" points="405.375,227.758 401.738,189.085 406.533,188.635 
				410.166,227.287 			"/>
			<polygon fill-rule="evenodd" clip-rule="evenodd" fill="#404041" points="407.715,227.525 403.92,188.882 406.533,188.635 
				410.166,227.287 			"/>
			<polygon fill-rule="evenodd" clip-rule="evenodd" fill="#ABACAE" points="406.555,188.868 406.498,188.276 401.202,188.769 
				401.103,188.777 400.82,188.939 400.73,189.268 401.703,199.585 402.217,199.536 402.703,199.375 402.48,196.991 
				401.918,196.385 401.297,189.81 401.389,189.479 401.667,189.322 			"/>
		</g>
		<g>
			
				<rect x="412.896" y="191.957" transform="matrix(0.995 0.0999 -0.0999 0.995 23.0842 -40.319)" fill-rule="evenodd" clip-rule="evenodd" fill="#404041" width="2.385" height="36.714"/>
			
				<rect x="412.899" y="191.898" transform="matrix(0.995 0.1 -0.1 0.995 23.0958 -40.2919)" fill-rule="evenodd" clip-rule="evenodd" fill="#343538" width="1.192" height="36.714"/>
			<path fill-rule="evenodd" clip-rule="evenodd" fill="#404041" d="M417.561,183.053c0.014-0.286-1.371-0.466-1.428-0.146
				l-1.902,11.71l2.777,0.279l-0.805,8l0.047,0.005c0.094-0.065,0.092-0.021,0.354-1.579c0.264-1.559,1.084-6.506,1.09-7.189
				C417.719,190.33,417.469,187.374,417.561,183.053z"/>
			
				<rect x="414.058" y="194.09" transform="matrix(0.9949 0.1005 -0.1005 0.9949 21.6367 -40.7681)" fill-rule="evenodd" clip-rule="evenodd" fill="#504D6B" width="2.994" height="0.659"/>
		</g>
		<g>
			<polygon fill-rule="evenodd" clip-rule="evenodd" fill="#00394F" points="395.002,193.713 402.746,221.974 405.516,221.219 
				397.77,192.954 396.233,192.784 			"/>
			<polygon fill-rule="evenodd" clip-rule="evenodd" fill="#00465E" points="395.002,193.713 402.746,221.974 404.129,221.598 
				396.156,192.493 			"/>
			<path fill-rule="evenodd" clip-rule="evenodd" fill="#FBD2C0" d="M397.77,192.954l-3.232-6.365l0.462,7.094
				c0.19,0.209,0.448,0.604,0.677,0.55c0.438-0.107-0.033-1.104,0.572-1.272c0.588-0.162,0.738,0.938,1.151,0.826
				C397.778,193.684,397.77,192.954,397.77,192.954z"/>
			<path fill-rule="evenodd" clip-rule="evenodd" fill="#DBB4A5" d="M394.537,186.589l0.462,7.094
				c0.19,0.209,0.448,0.604,0.677,0.55c0.438-0.107-0.033-1.104,0.572-1.272l0.031-0.006L394.537,186.589z"/>
			<polygon fill-rule="evenodd" clip-rule="evenodd" fill="#414142" points="395.52,188.523 394.537,186.589 394.678,188.754 			"/>
		</g>
		<g>
			<polygon fill-rule="evenodd" clip-rule="evenodd" fill="#00394F" points="397.238,190.198 401.272,219.223 404.117,218.831 
				400.08,189.803 398.578,189.437 			"/>
			<polygon fill-rule="evenodd" clip-rule="evenodd" fill="#00465E" points="397.238,190.198 401.272,219.223 402.692,219.027 
				398.54,189.139 			"/>
			<path fill-rule="evenodd" clip-rule="evenodd" fill="#FBD2C0" d="M400.08,189.803l-2.385-6.729l-0.456,7.094
				c0.161,0.232,0.366,0.658,0.6,0.633c0.448-0.05,0.11-1.098,0.733-1.188c0.604-0.086,0.609,1.025,1.033,0.967
				C399.995,190.527,400.08,189.803,400.08,189.803z"/>
			<path fill-rule="evenodd" clip-rule="evenodd" fill="#DBB4A5" d="M397.695,183.074l-0.456,7.094
				c0.161,0.232,0.366,0.658,0.6,0.633c0.448-0.05,0.11-1.098,0.733-1.188l0.031-0.003L397.695,183.074z"/>
			<polygon fill-rule="evenodd" clip-rule="evenodd" fill="#414142" points="398.421,185.119 397.695,183.074 397.557,185.239 			
				"/>
		</g>
		<path fill-rule="evenodd" clip-rule="evenodd" fill="#6D6E70" d="M417.363,201.761v29.198c0,1.265-0.797,2.308-1.766,2.308
			h-17.945c-0.973,0-1.769-1.043-1.769-2.308v-29.198H417.363z"/>
		<rect x="395.884" y="201.761" fill-rule="evenodd" clip-rule="evenodd" fill="#404041" width="21.478" height="3.114"/>
		<path fill-rule="evenodd" clip-rule="evenodd" fill="#7F8085" d="M417.363,230.958l-0.002-26.083h-10.738v28.391h8.975
			C416.566,233.266,417.363,232.224,417.363,230.958z"/>
		<rect x="406.623" y="201.76" fill-rule="evenodd" clip-rule="evenodd" fill="#535456" width="10.738" height="3.115"/>
	</g>
	<g>
		<path fill-rule="evenodd" clip-rule="evenodd" fill="#E6E7E8" d="M312.848,179.104c-0.089-0.993-0.718-1.854-1.636-2.243
			l-15.868-6.734l-0.658,1.452l15.188,6.404c0.871,0.367,1.469,1.185,1.556,2.125l1.976,21.641c0.039,0.404,0.366,0.706,0.75,0.706
			c0.025,0,0.049-0.003,0.072-0.003c0.413-0.04,0.718-0.424,0.681-0.853L312.848,179.104z"/>
		<rect x="304.435" y="233.392" fill-rule="evenodd" clip-rule="evenodd" fill="#B7B9BB" width="15.757" height="1.028"/>
		<path fill-rule="evenodd" clip-rule="evenodd" fill="#B36130" d="M303.774,233.385c0.02,0.163,0.159,0.288,0.326,0.288h16.425
			c0.167,0,0.308-0.125,0.327-0.288l4.538-36.452h-26.154L303.774,233.385z"/>
		<path fill-rule="evenodd" clip-rule="evenodd" fill="#D0D2D3" d="M302.497,190.623c0.146-0.652,0.724-1.118,1.392-1.118h17.352
			c0.668,0,1.247,0.466,1.39,1.118l0.706,3.195h-21.546L302.497,190.623z"/>
		<path fill-rule="evenodd" clip-rule="evenodd" fill="#E6E7E8" d="M298.875,194.039c0.169-0.764,0.846-1.306,1.627-1.306h24.115
			c0.782,0,1.459,0.542,1.628,1.306l0.872,3.938c0.034,0.154-0.004,0.316-0.103,0.438c-0.099,0.123-0.25,0.195-0.408,0.195h-28.092
			c-0.158,0-0.309-0.072-0.408-0.195c-0.098-0.122-0.137-0.284-0.102-0.438L298.875,194.039z"/>
		<path fill-rule="evenodd" clip-rule="evenodd" fill="#C96C38" d="M312.561,198.61h-13.116l4.329,34.775
			c0.019,0.162,0.159,0.287,0.326,0.287h0.334h8.126v-0.281V198.61z"/>
		<path fill-rule="evenodd" clip-rule="evenodd" fill="#D0D2D3" d="M299.445,198.61h13.116v-1.678v-3.114v-1.085h-10.53h-1.528
			c-0.781,0-1.458,0.543-1.627,1.306l-0.871,3.938c-0.035,0.154,0.003,0.316,0.102,0.438c0.099,0.123,0.25,0.195,0.408,0.195
			H299.445z"/>
		<path fill-rule="evenodd" clip-rule="evenodd" fill="#BBBDBF" d="M302.03,192.733h10.53v-0.241v-2.987h-0.273h-8.399
			c-0.668,0-1.247,0.466-1.392,1.118L302.03,192.733z"/>
	</g>
	<path fill-rule="evenodd" clip-rule="evenodd" fill="#FDCF9D" d="M434.277,395.399l-69.273-1.681
		c-1.874,0.425-1.057,4.409-0.115,4.586h69.084L434.277,395.399z"/>
	<path fill-rule="evenodd" clip-rule="evenodd" fill="#FDCF9D" d="M441.158,398.32l0.279-0.016h39.383l10.861-0.025l18.865,0.025
		l0.406-3.841l-30.133,0.367c-13.098,0.16-26.197,0.319-39.295,0.479C440.93,395.519,441.166,397.717,441.158,398.32z"/>
	<path fill-rule="evenodd" clip-rule="evenodd" fill="#504F50" d="M595.371,371.056l41.943,7.047
		c0.936,0.257,1.514,0.946,1.811,1.828c-0.471,1.787-1.566,3.271-2.85,3.041c-0.521-0.093-51.914-4.898-51.914-4.898
		s-50.977,4.806-51.498,4.898c-1.283,0.23-2.379-1.255-2.85-3.042c0.297-0.882,0.875-1.57,1.811-1.827l41.559-7.047H595.371z"/>
	<g>
		<path fill="#E57B57" d="M145.974,117.256c0,0,2.054-0.762,5.368-1.919c3.298-1.187,7.878-2.752,12.553-5.103
			c2.332-1.181,4.437-2.489,6.165-3.906c1.71-1.429,3.056-2.952,3.924-4.415c0.881-1.453,1.376-2.783,1.632-3.714
			c0.15-0.465,0.203-0.851,0.271-1.101c0.059-0.249,0.09-0.386,0.09-0.386s-0.001,0.141-0.005,0.397
			c-0.015,0.26,0.012,0.643-0.048,1.137c-0.078,1-0.337,2.446-1.052,4.126c-0.7,1.685-1.96,3.518-3.686,5.211
			c-1.739,1.68-3.936,3.194-6.386,4.434c-4.923,2.47-9.747,3.571-13.194,4.283C148.141,116.981,145.974,117.256,145.974,117.256z"/>
	</g>
	<g>
		<path fill="#E57B57" d="M113.807,141.313c0,0-0.305-0.832-0.826-2.256c-0.132-0.369-0.278-0.775-0.437-1.218
			c-0.143-0.449-0.262-0.948-0.408-1.48c-0.27-1.068-0.654-2.277-0.853-3.657c-0.121-0.693-0.246-1.414-0.376-2.159
			c-0.126-0.753-0.159-1.546-0.245-2.364c-0.201-1.638-0.175-3.398-0.178-5.255c0.142-3.704,0.691-7.79,1.962-11.91
			c1.328-4.103,3.265-7.772,5.412-10.816c0.568-0.73,1.126-1.448,1.672-2.15c0.534-0.701,1.187-1.271,1.746-1.878
			c1.104-1.234,2.337-2.168,3.419-3.054c0.27-0.219,0.535-0.434,0.793-0.644c0.28-0.182,0.553-0.359,0.82-0.533
			c0.528-0.337,1.03-0.657,1.503-0.958c0.917-0.632,1.778-1.016,2.477-1.349c1.37-0.649,2.17-1.028,2.17-1.028
			s-0.745,0.48-2.018,1.301c-0.652,0.413-1.47,0.899-2.292,1.612c-0.427,0.339-0.88,0.698-1.356,1.077
			c-0.24,0.19-0.485,0.386-0.736,0.585c-0.232,0.228-0.471,0.461-0.713,0.699c-0.971,0.956-2.08,1.946-3.056,3.214
			c-0.495,0.624-1.082,1.205-1.552,1.911c-0.484,0.701-0.978,1.417-1.482,2.146c-1.9,3.017-3.627,6.551-4.898,10.468
			c-1.212,3.938-1.861,7.826-2.184,11.396c-0.087,1.79-0.224,3.496-0.141,5.096c0.025,0.799-0.003,1.577,0.06,2.317
			c0.064,0.736,0.126,1.449,0.186,2.135c0.071,1.37,0.328,2.582,0.48,3.662c0.088,0.538,0.151,1.045,0.24,1.503
			c0.104,0.452,0.201,0.869,0.288,1.247C113.613,140.449,113.807,141.313,113.807,141.313z"/>
	</g>
	<g>
		<path fill="#E57B57" d="M123.809,105.092c0,0,0.046-0.12,0.129-0.337c0.083-0.223,0.217-0.546,0.406-0.957
			c0.377-0.821,0.985-1.985,1.855-3.352c1.733-2.731,4.518-6.291,8.283-9.541c3.759-3.238,7.856-5.461,11.109-6.153
			c1.616-0.37,2.969-0.365,3.878-0.235c0.46,0.049,0.791,0.145,1.021,0.208c0.225,0.061,0.349,0.095,0.349,0.095
			s-0.129-0.003-0.361-0.01c-0.236-0.01-0.59-0.028-1.026,0.019c-0.871,0.06-2.129,0.301-3.569,0.88
			c-2.906,1.116-6.475,3.599-10.098,6.714c-3.623,3.126-6.692,6.244-8.786,8.624C124.889,103.414,123.809,105.092,123.809,105.092z"
			/>
	</g>
	<g>
		<path fill="#E57B57" d="M136.783,112.12c0,0,2.06-1.109,5.43-2.776c3.363-1.677,8.019-3.931,12.867-6.808
			c2.407-1.465,4.599-2.987,6.499-4.5c0.882-0.82,1.818-1.52,2.529-2.326c0.372-0.381,0.737-0.755,1.092-1.119
			c0.309-0.385,0.61-0.76,0.902-1.123c0.617-0.699,1.037-1.402,1.437-2.019c0.199-0.306,0.387-0.594,0.562-0.863
			c0.139-0.285,0.268-0.548,0.386-0.788c0.458-0.913,0.734-1.465,0.734-1.465s-0.167,0.595-0.443,1.578
			c-0.075,0.256-0.156,0.538-0.245,0.842c-0.132,0.302-0.273,0.625-0.423,0.968c-0.308,0.698-0.651,1.517-1.184,2.313
			c-0.256,0.417-0.521,0.848-0.793,1.29c-0.327,0.422-0.662,0.854-1.003,1.294c-0.665,0.931-1.56,1.744-2.431,2.681
			c-1.864,1.732-4.094,3.435-6.587,4.95c-5.023,2.979-9.953,4.799-13.514,6.018C139.027,111.476,136.783,112.12,136.783,112.12z"/>
	</g>
	<g>
		<path fill="#E57B57" d="M132.999,84.549c0,0,0.205-0.256,0.524-0.655c0.357-0.402,0.826-1.06,1.546-1.713
			c1.389-1.369,3.578-3.023,6.307-4.268c2.755-1.185,5.451-1.683,7.418-1.801c0.97-0.09,1.744,0.003,2.286,0.008
			c0.513,0.031,0.84,0.05,0.84,0.05s-0.313,0.101-0.801,0.26c-0.508,0.18-1.286,0.34-2.174,0.67
			c-1.776,0.595-4.168,1.528-6.761,2.642c-2.564,1.173-4.867,2.303-6.514,3.238C134.243,83.818,132.999,84.549,132.999,84.549z"/>
	</g>
	<g>
		<path fill="#E57B57" d="M132.999,107.524c0,0,0.44-0.37,1.164-0.979c0.748-0.637,1.882-1.493,3.313-2.505
			c2.858-2.038,7.016-4.507,11.436-7.323c2.197-1.428,4.212-2.869,5.961-4.289c0.854-0.731,1.68-1.417,2.376-2.135
			c0.747-0.676,1.348-1.39,1.923-2.027c0.606-0.62,1.008-1.269,1.446-1.8c0.438-0.527,0.75-1.043,1.012-1.455
			c0.518-0.791,0.833-1.272,0.833-1.272s-0.21,0.536-0.555,1.416c-0.18,0.456-0.39,1.013-0.741,1.626
			c-0.346,0.607-0.673,1.37-1.193,2.084c-0.494,0.737-1.025,1.563-1.715,2.351c-0.643,0.833-1.427,1.632-2.26,2.47
			c-1.701,1.63-3.739,3.242-6,4.71c-4.549,2.896-8.921,4.908-12.007,6.501c-1.547,0.79-2.806,1.429-3.655,1.907
			C133.505,107.252,132.999,107.524,132.999,107.524z"/>
	</g>
	<g>
		<path fill="#E57B57" d="M89.209,170.236c0,0,0.194-0.383,0.504-0.994c0.357-0.609,0.729-1.571,1.196-2.729
			c0.463-1.324,0.968-2.769,1.467-4.197c0.275-0.798,0.608-1.633,0.987-2.496c0.17-0.429,0.407-0.873,0.649-1.321
			c0.247-0.431,0.473-0.941,0.761-1.314c0.28-0.395,0.556-0.783,0.832-1.171c0.332-0.433,0.673-0.775,1.005-1.15
			c0.697-0.687,1.417-1.295,2.146-1.773c1.44-1,2.827-1.671,3.983-2.222c2.071-0.943,3.769-1.716,3.769-1.716
			s-1.182,1.07-3.255,2.574c-1.021,0.76-2.249,1.633-3.464,2.698c-0.625,0.516-1.208,1.114-1.775,1.741
			c-0.253,0.327-0.556,0.662-0.79,0.985c-0.27,0.393-0.54,0.785-0.814,1.184c-0.305,0.399-0.453,0.782-0.689,1.162
			c-0.217,0.377-0.44,0.742-0.632,1.155c-0.405,0.79-0.797,1.564-1.158,2.323c-0.73,1.503-1.45,2.874-2.124,3.979
			c-0.713,1.092-1.316,1.949-1.836,2.465C89.502,169.922,89.209,170.236,89.209,170.236z"/>
	</g>
	<g>
		<path fill="#E57B57" d="M106.509,158.072c0,0,0.026-0.542,0.21-1.354c0.181-0.82,0.533-1.881,1.155-2.911
			c1.208-1.957,2.96-3.303,2.96-3.303s0.071,2.182-1.245,4.332c-0.623,1.032-1.402,1.834-2.005,2.384
			C106.974,157.771,106.509,158.072,106.509,158.072z"/>
	</g>
	<g>
		<path fill="#E57B57" d="M181.384,102.119c0,0,0.053-0.263,0.134-0.668c0.054-0.205,0.078-0.473,0.118-0.772
			c0.049-0.296,0.081-0.637,0.101-1.014c0.112-1.493,0.108-3.551-0.221-5.684c-0.186-1.051-0.398-2.046-0.785-2.83
			c-0.071-0.218-0.211-0.363-0.306-0.551c-0.099-0.185-0.204-0.357-0.342-0.483l-0.371-0.424l-0.423-0.305
			c-0.267-0.246-0.558-0.292-0.815-0.431c-0.249-0.146-0.535-0.166-0.746-0.211c-0.407-0.085-0.67-0.141-0.67-0.141
			s0.261-0.067,0.664-0.172c0.218-0.047,0.463-0.14,0.807-0.106c0.327,0.024,0.766-0.022,1.163,0.146
			c0.218,0.074,0.439,0.148,0.661,0.223c0.209,0.116,0.418,0.257,0.641,0.403c0.236,0.136,0.431,0.32,0.617,0.527
			c0.18,0.206,0.418,0.403,0.561,0.649c0.704,0.947,1.101,2.145,1.318,3.393c0.384,2.52-0.163,4.758-0.783,6.236
			c-0.148,0.373-0.307,0.701-0.473,0.977c-0.157,0.278-0.286,0.516-0.431,0.693C181.549,101.904,181.384,102.119,181.384,102.119z"
			/>
	</g>
	<g>
		<path fill="#E57B57" d="M117.321,120.77c0,0-0.152-0.718-0.163-1.925c0.042-1.185,0.344-2.911,1.377-4.501
			c1.046-1.572,2.47-2.534,3.511-3.111c1.048-0.518,1.762-0.734,1.762-0.734s-0.417,0.62-1.144,1.521
			c-0.664,0.915-1.576,2.096-2.458,3.424c-0.865,1.333-1.557,2.622-2.075,3.634C117.671,120.094,117.321,120.77,117.321,120.77z"/>
	</g>
</g>
</svg>
